%TF.GenerationSoftware,KiCad,Pcbnew,7.0.5*%
%TF.CreationDate,2023-12-15T15:58:09-05:00*%
%TF.ProjectId,amoebe_streamline,616d6f65-6265-45f7-9374-7265616d6c69,rev?*%
%TF.SameCoordinates,Original*%
%TF.FileFunction,Legend,Bot*%
%TF.FilePolarity,Positive*%
%FSLAX46Y46*%
G04 Gerber Fmt 4.6, Leading zero omitted, Abs format (unit mm)*
G04 Created by KiCad (PCBNEW 7.0.5) date 2023-12-15 15:58:09*
%MOMM*%
%LPD*%
G01*
G04 APERTURE LIST*
%ADD10C,0.150000*%
%ADD11C,0.125000*%
%ADD12C,0.120000*%
%ADD13C,0.100000*%
G04 APERTURE END LIST*
D10*
X148463000Y-98298000D02*
X147701000Y-97536000D01*
X139446000Y-98298000D02*
X138684000Y-99060000D01*
X148463000Y-98298000D02*
X147701000Y-99060000D01*
X138684000Y-99060000D02*
X139446000Y-98298000D01*
X139446000Y-98298000D02*
X138684000Y-97536000D01*
X148463000Y-98298000D02*
X145669000Y-98298000D01*
X147701000Y-99060000D02*
X148463000Y-98298000D01*
X139446000Y-98298000D02*
X136652000Y-98298000D01*
D11*
X149119002Y-104326309D02*
X149285668Y-104088214D01*
X149404716Y-104326309D02*
X149404716Y-103826309D01*
X149404716Y-103826309D02*
X149214240Y-103826309D01*
X149214240Y-103826309D02*
X149166621Y-103850119D01*
X149166621Y-103850119D02*
X149142811Y-103873928D01*
X149142811Y-103873928D02*
X149119002Y-103921547D01*
X149119002Y-103921547D02*
X149119002Y-103992976D01*
X149119002Y-103992976D02*
X149142811Y-104040595D01*
X149142811Y-104040595D02*
X149166621Y-104064404D01*
X149166621Y-104064404D02*
X149214240Y-104088214D01*
X149214240Y-104088214D02*
X149404716Y-104088214D01*
X149912716Y-96960309D02*
X149912716Y-96460309D01*
X149912716Y-96460309D02*
X149793668Y-96460309D01*
X149793668Y-96460309D02*
X149722240Y-96484119D01*
X149722240Y-96484119D02*
X149674621Y-96531738D01*
X149674621Y-96531738D02*
X149650811Y-96579357D01*
X149650811Y-96579357D02*
X149627002Y-96674595D01*
X149627002Y-96674595D02*
X149627002Y-96746023D01*
X149627002Y-96746023D02*
X149650811Y-96841261D01*
X149650811Y-96841261D02*
X149674621Y-96888880D01*
X149674621Y-96888880D02*
X149722240Y-96936500D01*
X149722240Y-96936500D02*
X149793668Y-96960309D01*
X149793668Y-96960309D02*
X149912716Y-96960309D01*
X149317478Y-96460309D02*
X149222240Y-96460309D01*
X149222240Y-96460309D02*
X149174621Y-96484119D01*
X149174621Y-96484119D02*
X149127002Y-96531738D01*
X149127002Y-96531738D02*
X149103192Y-96626976D01*
X149103192Y-96626976D02*
X149103192Y-96793642D01*
X149103192Y-96793642D02*
X149127002Y-96888880D01*
X149127002Y-96888880D02*
X149174621Y-96936500D01*
X149174621Y-96936500D02*
X149222240Y-96960309D01*
X149222240Y-96960309D02*
X149317478Y-96960309D01*
X149317478Y-96960309D02*
X149365097Y-96936500D01*
X149365097Y-96936500D02*
X149412716Y-96888880D01*
X149412716Y-96888880D02*
X149436525Y-96793642D01*
X149436525Y-96793642D02*
X149436525Y-96626976D01*
X149436525Y-96626976D02*
X149412716Y-96531738D01*
X149412716Y-96531738D02*
X149365097Y-96484119D01*
X149365097Y-96484119D02*
X149317478Y-96460309D01*
X148888906Y-96460309D02*
X148888906Y-96865071D01*
X148888906Y-96865071D02*
X148865096Y-96912690D01*
X148865096Y-96912690D02*
X148841287Y-96936500D01*
X148841287Y-96936500D02*
X148793668Y-96960309D01*
X148793668Y-96960309D02*
X148698430Y-96960309D01*
X148698430Y-96960309D02*
X148650811Y-96936500D01*
X148650811Y-96936500D02*
X148627001Y-96912690D01*
X148627001Y-96912690D02*
X148603192Y-96865071D01*
X148603192Y-96865071D02*
X148603192Y-96460309D01*
X148436524Y-96460309D02*
X148150810Y-96460309D01*
X148293667Y-96960309D02*
X148293667Y-96460309D01*
X137466716Y-96706309D02*
X137466716Y-96206309D01*
X137466716Y-96206309D02*
X137347668Y-96206309D01*
X137347668Y-96206309D02*
X137276240Y-96230119D01*
X137276240Y-96230119D02*
X137228621Y-96277738D01*
X137228621Y-96277738D02*
X137204811Y-96325357D01*
X137204811Y-96325357D02*
X137181002Y-96420595D01*
X137181002Y-96420595D02*
X137181002Y-96492023D01*
X137181002Y-96492023D02*
X137204811Y-96587261D01*
X137204811Y-96587261D02*
X137228621Y-96634880D01*
X137228621Y-96634880D02*
X137276240Y-96682500D01*
X137276240Y-96682500D02*
X137347668Y-96706309D01*
X137347668Y-96706309D02*
X137466716Y-96706309D01*
X136966716Y-96706309D02*
X136966716Y-96206309D01*
X136728621Y-96706309D02*
X136728621Y-96206309D01*
X136728621Y-96206309D02*
X136442907Y-96706309D01*
X136442907Y-96706309D02*
X136442907Y-96206309D01*
X139467002Y-93610690D02*
X139490811Y-93634500D01*
X139490811Y-93634500D02*
X139562240Y-93658309D01*
X139562240Y-93658309D02*
X139609859Y-93658309D01*
X139609859Y-93658309D02*
X139681287Y-93634500D01*
X139681287Y-93634500D02*
X139728906Y-93586880D01*
X139728906Y-93586880D02*
X139752716Y-93539261D01*
X139752716Y-93539261D02*
X139776525Y-93444023D01*
X139776525Y-93444023D02*
X139776525Y-93372595D01*
X139776525Y-93372595D02*
X139752716Y-93277357D01*
X139752716Y-93277357D02*
X139728906Y-93229738D01*
X139728906Y-93229738D02*
X139681287Y-93182119D01*
X139681287Y-93182119D02*
X139609859Y-93158309D01*
X139609859Y-93158309D02*
X139562240Y-93158309D01*
X139562240Y-93158309D02*
X139490811Y-93182119D01*
X139490811Y-93182119D02*
X139467002Y-93205928D01*
X149984144Y-107128309D02*
X149817478Y-107628309D01*
X149817478Y-107628309D02*
X149650811Y-107128309D01*
X149507954Y-107604500D02*
X149436526Y-107628309D01*
X149436526Y-107628309D02*
X149317478Y-107628309D01*
X149317478Y-107628309D02*
X149269859Y-107604500D01*
X149269859Y-107604500D02*
X149246050Y-107580690D01*
X149246050Y-107580690D02*
X149222240Y-107533071D01*
X149222240Y-107533071D02*
X149222240Y-107485452D01*
X149222240Y-107485452D02*
X149246050Y-107437833D01*
X149246050Y-107437833D02*
X149269859Y-107414023D01*
X149269859Y-107414023D02*
X149317478Y-107390214D01*
X149317478Y-107390214D02*
X149412716Y-107366404D01*
X149412716Y-107366404D02*
X149460335Y-107342595D01*
X149460335Y-107342595D02*
X149484145Y-107318785D01*
X149484145Y-107318785D02*
X149507954Y-107271166D01*
X149507954Y-107271166D02*
X149507954Y-107223547D01*
X149507954Y-107223547D02*
X149484145Y-107175928D01*
X149484145Y-107175928D02*
X149460335Y-107152119D01*
X149460335Y-107152119D02*
X149412716Y-107128309D01*
X149412716Y-107128309D02*
X149293669Y-107128309D01*
X149293669Y-107128309D02*
X149222240Y-107152119D01*
X149031764Y-107604500D02*
X148960336Y-107628309D01*
X148960336Y-107628309D02*
X148841288Y-107628309D01*
X148841288Y-107628309D02*
X148793669Y-107604500D01*
X148793669Y-107604500D02*
X148769860Y-107580690D01*
X148769860Y-107580690D02*
X148746050Y-107533071D01*
X148746050Y-107533071D02*
X148746050Y-107485452D01*
X148746050Y-107485452D02*
X148769860Y-107437833D01*
X148769860Y-107437833D02*
X148793669Y-107414023D01*
X148793669Y-107414023D02*
X148841288Y-107390214D01*
X148841288Y-107390214D02*
X148936526Y-107366404D01*
X148936526Y-107366404D02*
X148984145Y-107342595D01*
X148984145Y-107342595D02*
X149007955Y-107318785D01*
X149007955Y-107318785D02*
X149031764Y-107271166D01*
X149031764Y-107271166D02*
X149031764Y-107223547D01*
X149031764Y-107223547D02*
X149007955Y-107175928D01*
X149007955Y-107175928D02*
X148984145Y-107152119D01*
X148984145Y-107152119D02*
X148936526Y-107128309D01*
X148936526Y-107128309D02*
X148817479Y-107128309D01*
X148817479Y-107128309D02*
X148746050Y-107152119D01*
X136927002Y-104326309D02*
X137093668Y-104088214D01*
X137212716Y-104326309D02*
X137212716Y-103826309D01*
X137212716Y-103826309D02*
X137022240Y-103826309D01*
X137022240Y-103826309D02*
X136974621Y-103850119D01*
X136974621Y-103850119D02*
X136950811Y-103873928D01*
X136950811Y-103873928D02*
X136927002Y-103921547D01*
X136927002Y-103921547D02*
X136927002Y-103992976D01*
X136927002Y-103992976D02*
X136950811Y-104040595D01*
X136950811Y-104040595D02*
X136974621Y-104064404D01*
X136974621Y-104064404D02*
X137022240Y-104088214D01*
X137022240Y-104088214D02*
X137212716Y-104088214D01*
X139657102Y-107581490D02*
X139680911Y-107605300D01*
X139680911Y-107605300D02*
X139752340Y-107629109D01*
X139752340Y-107629109D02*
X139799959Y-107629109D01*
X139799959Y-107629109D02*
X139871387Y-107605300D01*
X139871387Y-107605300D02*
X139919006Y-107557680D01*
X139919006Y-107557680D02*
X139942816Y-107510061D01*
X139942816Y-107510061D02*
X139966625Y-107414823D01*
X139966625Y-107414823D02*
X139966625Y-107343395D01*
X139966625Y-107343395D02*
X139942816Y-107248157D01*
X139942816Y-107248157D02*
X139919006Y-107200538D01*
X139919006Y-107200538D02*
X139871387Y-107152919D01*
X139871387Y-107152919D02*
X139799959Y-107129109D01*
X139799959Y-107129109D02*
X139752340Y-107129109D01*
X139752340Y-107129109D02*
X139680911Y-107152919D01*
X139680911Y-107152919D02*
X139657102Y-107176728D01*
X137548544Y-92787709D02*
X137381878Y-93287709D01*
X137381878Y-93287709D02*
X137215211Y-92787709D01*
X137048545Y-93287709D02*
X137048545Y-92787709D01*
X137048545Y-92787709D02*
X136929497Y-92787709D01*
X136929497Y-92787709D02*
X136858069Y-92811519D01*
X136858069Y-92811519D02*
X136810450Y-92859138D01*
X136810450Y-92859138D02*
X136786640Y-92906757D01*
X136786640Y-92906757D02*
X136762831Y-93001995D01*
X136762831Y-93001995D02*
X136762831Y-93073423D01*
X136762831Y-93073423D02*
X136786640Y-93168661D01*
X136786640Y-93168661D02*
X136810450Y-93216280D01*
X136810450Y-93216280D02*
X136858069Y-93263900D01*
X136858069Y-93263900D02*
X136929497Y-93287709D01*
X136929497Y-93287709D02*
X137048545Y-93287709D01*
X136548545Y-93287709D02*
X136548545Y-92787709D01*
X136548545Y-92787709D02*
X136429497Y-92787709D01*
X136429497Y-92787709D02*
X136358069Y-92811519D01*
X136358069Y-92811519D02*
X136310450Y-92859138D01*
X136310450Y-92859138D02*
X136286640Y-92906757D01*
X136286640Y-92906757D02*
X136262831Y-93001995D01*
X136262831Y-93001995D02*
X136262831Y-93073423D01*
X136262831Y-93073423D02*
X136286640Y-93168661D01*
X136286640Y-93168661D02*
X136310450Y-93216280D01*
X136310450Y-93216280D02*
X136358069Y-93263900D01*
X136358069Y-93263900D02*
X136429497Y-93287709D01*
X136429497Y-93287709D02*
X136548545Y-93287709D01*
X137538144Y-107128309D02*
X137371478Y-107628309D01*
X137371478Y-107628309D02*
X137204811Y-107128309D01*
X137061954Y-107604500D02*
X136990526Y-107628309D01*
X136990526Y-107628309D02*
X136871478Y-107628309D01*
X136871478Y-107628309D02*
X136823859Y-107604500D01*
X136823859Y-107604500D02*
X136800050Y-107580690D01*
X136800050Y-107580690D02*
X136776240Y-107533071D01*
X136776240Y-107533071D02*
X136776240Y-107485452D01*
X136776240Y-107485452D02*
X136800050Y-107437833D01*
X136800050Y-107437833D02*
X136823859Y-107414023D01*
X136823859Y-107414023D02*
X136871478Y-107390214D01*
X136871478Y-107390214D02*
X136966716Y-107366404D01*
X136966716Y-107366404D02*
X137014335Y-107342595D01*
X137014335Y-107342595D02*
X137038145Y-107318785D01*
X137038145Y-107318785D02*
X137061954Y-107271166D01*
X137061954Y-107271166D02*
X137061954Y-107223547D01*
X137061954Y-107223547D02*
X137038145Y-107175928D01*
X137038145Y-107175928D02*
X137014335Y-107152119D01*
X137014335Y-107152119D02*
X136966716Y-107128309D01*
X136966716Y-107128309D02*
X136847669Y-107128309D01*
X136847669Y-107128309D02*
X136776240Y-107152119D01*
X136585764Y-107604500D02*
X136514336Y-107628309D01*
X136514336Y-107628309D02*
X136395288Y-107628309D01*
X136395288Y-107628309D02*
X136347669Y-107604500D01*
X136347669Y-107604500D02*
X136323860Y-107580690D01*
X136323860Y-107580690D02*
X136300050Y-107533071D01*
X136300050Y-107533071D02*
X136300050Y-107485452D01*
X136300050Y-107485452D02*
X136323860Y-107437833D01*
X136323860Y-107437833D02*
X136347669Y-107414023D01*
X136347669Y-107414023D02*
X136395288Y-107390214D01*
X136395288Y-107390214D02*
X136490526Y-107366404D01*
X136490526Y-107366404D02*
X136538145Y-107342595D01*
X136538145Y-107342595D02*
X136561955Y-107318785D01*
X136561955Y-107318785D02*
X136585764Y-107271166D01*
X136585764Y-107271166D02*
X136585764Y-107223547D01*
X136585764Y-107223547D02*
X136561955Y-107175928D01*
X136561955Y-107175928D02*
X136538145Y-107152119D01*
X136538145Y-107152119D02*
X136490526Y-107128309D01*
X136490526Y-107128309D02*
X136371479Y-107128309D01*
X136371479Y-107128309D02*
X136300050Y-107152119D01*
X149730144Y-93158309D02*
X149563478Y-93658309D01*
X149563478Y-93658309D02*
X149396811Y-93158309D01*
X149230145Y-93658309D02*
X149230145Y-93158309D01*
X149230145Y-93158309D02*
X149111097Y-93158309D01*
X149111097Y-93158309D02*
X149039669Y-93182119D01*
X149039669Y-93182119D02*
X148992050Y-93229738D01*
X148992050Y-93229738D02*
X148968240Y-93277357D01*
X148968240Y-93277357D02*
X148944431Y-93372595D01*
X148944431Y-93372595D02*
X148944431Y-93444023D01*
X148944431Y-93444023D02*
X148968240Y-93539261D01*
X148968240Y-93539261D02*
X148992050Y-93586880D01*
X148992050Y-93586880D02*
X149039669Y-93634500D01*
X149039669Y-93634500D02*
X149111097Y-93658309D01*
X149111097Y-93658309D02*
X149230145Y-93658309D01*
X148730145Y-93658309D02*
X148730145Y-93158309D01*
X148730145Y-93158309D02*
X148611097Y-93158309D01*
X148611097Y-93158309D02*
X148539669Y-93182119D01*
X148539669Y-93182119D02*
X148492050Y-93229738D01*
X148492050Y-93229738D02*
X148468240Y-93277357D01*
X148468240Y-93277357D02*
X148444431Y-93372595D01*
X148444431Y-93372595D02*
X148444431Y-93444023D01*
X148444431Y-93444023D02*
X148468240Y-93539261D01*
X148468240Y-93539261D02*
X148492050Y-93586880D01*
X148492050Y-93586880D02*
X148539669Y-93634500D01*
X148539669Y-93634500D02*
X148611097Y-93658309D01*
X148611097Y-93658309D02*
X148730145Y-93658309D01*
D12*
%TO.C,D1*%
X142205200Y-107263000D02*
X142205200Y-103253000D01*
X144205200Y-107263000D02*
X142205200Y-107263000D01*
X144205200Y-107263000D02*
X144205200Y-103253000D01*
%TO.C,D2*%
D13*
X145085000Y-97262000D02*
X145085000Y-96662000D01*
X145685000Y-96662000D01*
X145085000Y-97262000D01*
G36*
X145085000Y-97262000D02*
G01*
X145085000Y-96662000D01*
X145685000Y-96662000D01*
X145085000Y-97262000D01*
G37*
%TD*%
M02*
