%TF.GenerationSoftware,KiCad,Pcbnew,7.0.5*%
%TF.CreationDate,2024-03-07T22:21:16-05:00*%
%TF.ProjectId,amoebe_streamline,616d6f65-6265-45f7-9374-7265616d6c69,rev?*%
%TF.SameCoordinates,Original*%
%TF.FileFunction,Copper,L1,Top*%
%TF.FilePolarity,Positive*%
%FSLAX46Y46*%
G04 Gerber Fmt 4.6, Leading zero omitted, Abs format (unit mm)*
G04 Created by KiCad (PCBNEW 7.0.5) date 2024-03-07 22:21:16*
%MOMM*%
%LPD*%
G01*
G04 APERTURE LIST*
G04 Aperture macros list*
%AMRoundRect*
0 Rectangle with rounded corners*
0 $1 Rounding radius*
0 $2 $3 $4 $5 $6 $7 $8 $9 X,Y pos of 4 corners*
0 Add a 4 corners polygon primitive as box body*
4,1,4,$2,$3,$4,$5,$6,$7,$8,$9,$2,$3,0*
0 Add four circle primitives for the rounded corners*
1,1,$1+$1,$2,$3*
1,1,$1+$1,$4,$5*
1,1,$1+$1,$6,$7*
1,1,$1+$1,$8,$9*
0 Add four rect primitives between the rounded corners*
20,1,$1+$1,$2,$3,$4,$5,0*
20,1,$1+$1,$4,$5,$6,$7,0*
20,1,$1+$1,$6,$7,$8,$9,0*
20,1,$1+$1,$8,$9,$2,$3,0*%
G04 Aperture macros list end*
%TA.AperFunction,ComponentPad*%
%ADD10O,0.800000X1.300000*%
%TD*%
%TA.AperFunction,ComponentPad*%
%ADD11RoundRect,0.200000X0.200000X0.450000X-0.200000X0.450000X-0.200000X-0.450000X0.200000X-0.450000X0*%
%TD*%
%TA.AperFunction,ComponentPad*%
%ADD12C,2.286000*%
%TD*%
%TA.AperFunction,ComponentPad*%
%ADD13O,1.300000X0.800000*%
%TD*%
%TA.AperFunction,ComponentPad*%
%ADD14RoundRect,0.200000X0.450000X-0.200000X0.450000X0.200000X-0.450000X0.200000X-0.450000X-0.200000X0*%
%TD*%
%TA.AperFunction,SMDPad,CuDef*%
%ADD15RoundRect,0.225000X-0.083173X-0.429339X0.339688X-0.275430X0.083173X0.429339X-0.339688X0.275430X0*%
%TD*%
%TA.AperFunction,ComponentPad*%
%ADD16RoundRect,0.200000X-0.450000X0.200000X-0.450000X-0.200000X0.450000X-0.200000X0.450000X0.200000X0*%
%TD*%
%TA.AperFunction,SMDPad,CuDef*%
%ADD17R,1.700000X0.820000*%
%TD*%
%TA.AperFunction,SMDPad,CuDef*%
%ADD18RoundRect,0.205000X0.645000X0.205000X-0.645000X0.205000X-0.645000X-0.205000X0.645000X-0.205000X0*%
%TD*%
%TA.AperFunction,ViaPad*%
%ADD19C,0.800000*%
%TD*%
%TA.AperFunction,Conductor*%
%ADD20C,0.500000*%
%TD*%
%TA.AperFunction,Conductor*%
%ADD21C,0.250000*%
%TD*%
G04 APERTURE END LIST*
D10*
%TO.P,J5,2,Pin_2*%
%TO.N,/C*%
X142056800Y-108610400D03*
D11*
%TO.P,J5,1,Pin_1*%
%TO.N,/VSS*%
X143306800Y-108610400D03*
%TD*%
D12*
%TO.P,S1,*%
%TO.N,Net-(D1-A)*%
X140334900Y-105407900D03*
%TO.P,S1,1*%
%TO.N,/R*%
X146684900Y-102867900D03*
X145414900Y-105407900D03*
%TO.P,S1,2*%
%TO.N,Net-(D1-A)*%
X139064900Y-102867900D03*
%TD*%
D13*
%TO.P,J3,2,Pin_2*%
%TO.N,/VDD*%
X149148800Y-96590800D03*
D14*
%TO.P,J3,1,Pin_1*%
%TO.N,/DOUT*%
X149148800Y-97840800D03*
%TD*%
D15*
%TO.P,D1,2,K*%
%TO.N,/C*%
X144552493Y-103321667D03*
%TO.P,D1,1,A*%
%TO.N,Net-(D1-A)*%
X141451507Y-104450333D03*
%TD*%
D16*
%TO.P,J4,1,Pin_1*%
%TO.N,/R*%
X136601200Y-102666800D03*
D13*
%TO.P,J4,2,Pin_2*%
%TO.N,/VSS*%
X136601200Y-103916800D03*
%TD*%
D17*
%TO.P,D2,1,VDD*%
%TO.N,/VDD*%
X145435000Y-94512000D03*
%TO.P,D2,2,DOUT*%
%TO.N,/DOUT*%
X145435000Y-96012000D03*
D18*
%TO.P,D2,3,VSS*%
%TO.N,/VSS*%
X140335000Y-96012000D03*
D17*
%TO.P,D2,4,DIN*%
%TO.N,/DIN*%
X140335000Y-94512000D03*
%TD*%
D14*
%TO.P,J2,1,Pin_1*%
%TO.N,/VSS*%
X149148800Y-103936800D03*
D13*
%TO.P,J2,2,Pin_2*%
%TO.N,/R*%
X149148800Y-102686800D03*
%TD*%
D10*
%TO.P,J6,2,Pin_2*%
%TO.N,/VSS*%
X147695600Y-93370400D03*
D11*
%TO.P,J6,1,Pin_1*%
%TO.N,/C*%
X148945600Y-93370400D03*
%TD*%
D16*
%TO.P,J1,1,Pin_1*%
%TO.N,/VDD*%
X136550400Y-96520000D03*
D13*
%TO.P,J1,2,Pin_2*%
%TO.N,/DIN*%
X136550400Y-97770000D03*
%TD*%
D19*
%TO.N,/VSS*%
X142900400Y-106883200D03*
%TO.N,/C*%
X146923389Y-97494989D03*
X144552493Y-103321667D03*
%TO.N,/DOUT*%
X144625000Y-97250000D03*
%TO.N,/VSS*%
X145288000Y-98355500D03*
%TO.N,/DIN*%
X138684000Y-94234000D03*
%TD*%
D20*
%TO.N,/VSS*%
X149148800Y-104902000D02*
X149148800Y-103936800D01*
X145440400Y-108610400D02*
X149148800Y-104902000D01*
X143306800Y-108610400D02*
X145440400Y-108610400D01*
D21*
%TO.N,/DIN*%
X138684000Y-95691000D02*
X138684000Y-94234000D01*
X136742000Y-97633000D02*
X138684000Y-95691000D01*
X136543200Y-97633000D02*
X136742000Y-97633000D01*
D20*
%TO.N,/VDD*%
X145435000Y-94228600D02*
X145435000Y-94512000D01*
X144581400Y-93375000D02*
X145435000Y-94228600D01*
X136543200Y-94642200D02*
X137810400Y-93375000D01*
X137810400Y-93375000D02*
X144581400Y-93375000D01*
X136543200Y-96383000D02*
X136543200Y-94642200D01*
D21*
%TO.N,/DOUT*%
X147675600Y-96367600D02*
X149148800Y-97840800D01*
X147167600Y-96367600D02*
X147675600Y-96367600D01*
X146285200Y-97250000D02*
X147167600Y-96367600D01*
D20*
%TO.N,/VDD*%
X148285200Y-94457200D02*
X145518600Y-94457200D01*
X149148800Y-95320800D02*
X148285200Y-94457200D01*
X149148800Y-96590800D02*
X149148800Y-95320800D01*
D21*
%TO.N,/DOUT*%
X144625000Y-97250000D02*
X146285200Y-97250000D01*
%TO.N,/C*%
X144552493Y-102185107D02*
X144552493Y-103321667D01*
X146729000Y-100008600D02*
X144552493Y-102185107D01*
X146729000Y-98631200D02*
X146729000Y-100008600D01*
X146923389Y-98436811D02*
X146729000Y-98631200D01*
X146923389Y-97494989D02*
X146923389Y-98436811D01*
%TO.N,/R*%
X146866000Y-102686800D02*
X146684900Y-102867900D01*
X149148800Y-102686800D02*
X146866000Y-102686800D01*
X136966745Y-102301255D02*
X137696900Y-102301255D01*
X136601200Y-102666800D02*
X136966745Y-102301255D01*
D20*
%TO.N,/VSS*%
X142371740Y-106934000D02*
X147116800Y-106934000D01*
X142016140Y-107289600D02*
X142371740Y-106934000D01*
X139112731Y-107289600D02*
X142016140Y-107289600D01*
X137503223Y-106261223D02*
X138084354Y-106261223D01*
X136601200Y-105359200D02*
X137503223Y-106261223D01*
X136601200Y-103916800D02*
X136601200Y-105359200D01*
X138084354Y-106261223D02*
X139112731Y-107289600D01*
D21*
%TO.N,/R*%
X140361900Y-101499900D02*
X144269900Y-105407900D01*
X144269900Y-105407900D02*
X145414900Y-105407900D01*
X137696900Y-102301255D02*
X138498255Y-101499900D01*
X138498255Y-101499900D02*
X140361900Y-101499900D01*
D20*
%TO.N,/VSS*%
X140335000Y-96610000D02*
X141285661Y-97560661D01*
X141285661Y-97560661D02*
X143875000Y-97560661D01*
X143875000Y-97560661D02*
X144669839Y-98355500D01*
X140335000Y-96012000D02*
X140335000Y-96610000D01*
X144669839Y-98355500D02*
X145288000Y-98355500D01*
D21*
%TO.N,/DIN*%
X140059000Y-94234000D02*
X140350400Y-94525400D01*
X138684000Y-94234000D02*
X140059000Y-94234000D01*
%TO.N,/R*%
X137696900Y-102301255D02*
X137786578Y-102211578D01*
%TD*%
M02*
