%TF.GenerationSoftware,KiCad,Pcbnew,7.0.5*%
%TF.CreationDate,2024-03-07T22:21:16-05:00*%
%TF.ProjectId,amoebe_streamline,616d6f65-6265-45f7-9374-7265616d6c69,rev?*%
%TF.SameCoordinates,Original*%
%TF.FileFunction,Legend,Bot*%
%TF.FilePolarity,Positive*%
%FSLAX46Y46*%
G04 Gerber Fmt 4.6, Leading zero omitted, Abs format (unit mm)*
G04 Created by KiCad (PCBNEW 7.0.5) date 2024-03-07 22:21:16*
%MOMM*%
%LPD*%
G01*
G04 APERTURE LIST*
%ADD10C,0.150000*%
%ADD11C,0.125000*%
%ADD12C,0.120000*%
%ADD13C,0.100000*%
G04 APERTURE END LIST*
D10*
X144272000Y-97586800D02*
X143510000Y-98348800D01*
X144272000Y-97586800D02*
X143510000Y-96824800D01*
X144246600Y-97586800D02*
X141757400Y-97586800D01*
D11*
X149220602Y-101837109D02*
X149387268Y-101599014D01*
X149506316Y-101837109D02*
X149506316Y-101337109D01*
X149506316Y-101337109D02*
X149315840Y-101337109D01*
X149315840Y-101337109D02*
X149268221Y-101360919D01*
X149268221Y-101360919D02*
X149244411Y-101384728D01*
X149244411Y-101384728D02*
X149220602Y-101432347D01*
X149220602Y-101432347D02*
X149220602Y-101503776D01*
X149220602Y-101503776D02*
X149244411Y-101551395D01*
X149244411Y-101551395D02*
X149268221Y-101575204D01*
X149268221Y-101575204D02*
X149315840Y-101599014D01*
X149315840Y-101599014D02*
X149506316Y-101599014D01*
X150573116Y-99398709D02*
X150573116Y-98898709D01*
X150573116Y-98898709D02*
X150454068Y-98898709D01*
X150454068Y-98898709D02*
X150382640Y-98922519D01*
X150382640Y-98922519D02*
X150335021Y-98970138D01*
X150335021Y-98970138D02*
X150311211Y-99017757D01*
X150311211Y-99017757D02*
X150287402Y-99112995D01*
X150287402Y-99112995D02*
X150287402Y-99184423D01*
X150287402Y-99184423D02*
X150311211Y-99279661D01*
X150311211Y-99279661D02*
X150335021Y-99327280D01*
X150335021Y-99327280D02*
X150382640Y-99374900D01*
X150382640Y-99374900D02*
X150454068Y-99398709D01*
X150454068Y-99398709D02*
X150573116Y-99398709D01*
X149977878Y-98898709D02*
X149882640Y-98898709D01*
X149882640Y-98898709D02*
X149835021Y-98922519D01*
X149835021Y-98922519D02*
X149787402Y-98970138D01*
X149787402Y-98970138D02*
X149763592Y-99065376D01*
X149763592Y-99065376D02*
X149763592Y-99232042D01*
X149763592Y-99232042D02*
X149787402Y-99327280D01*
X149787402Y-99327280D02*
X149835021Y-99374900D01*
X149835021Y-99374900D02*
X149882640Y-99398709D01*
X149882640Y-99398709D02*
X149977878Y-99398709D01*
X149977878Y-99398709D02*
X150025497Y-99374900D01*
X150025497Y-99374900D02*
X150073116Y-99327280D01*
X150073116Y-99327280D02*
X150096925Y-99232042D01*
X150096925Y-99232042D02*
X150096925Y-99065376D01*
X150096925Y-99065376D02*
X150073116Y-98970138D01*
X150073116Y-98970138D02*
X150025497Y-98922519D01*
X150025497Y-98922519D02*
X149977878Y-98898709D01*
X149549306Y-98898709D02*
X149549306Y-99303471D01*
X149549306Y-99303471D02*
X149525496Y-99351090D01*
X149525496Y-99351090D02*
X149501687Y-99374900D01*
X149501687Y-99374900D02*
X149454068Y-99398709D01*
X149454068Y-99398709D02*
X149358830Y-99398709D01*
X149358830Y-99398709D02*
X149311211Y-99374900D01*
X149311211Y-99374900D02*
X149287401Y-99351090D01*
X149287401Y-99351090D02*
X149263592Y-99303471D01*
X149263592Y-99303471D02*
X149263592Y-98898709D01*
X149096924Y-98898709D02*
X148811210Y-98898709D01*
X148954067Y-99398709D02*
X148954067Y-98898709D01*
X137111116Y-98992309D02*
X137111116Y-98492309D01*
X137111116Y-98492309D02*
X136992068Y-98492309D01*
X136992068Y-98492309D02*
X136920640Y-98516119D01*
X136920640Y-98516119D02*
X136873021Y-98563738D01*
X136873021Y-98563738D02*
X136849211Y-98611357D01*
X136849211Y-98611357D02*
X136825402Y-98706595D01*
X136825402Y-98706595D02*
X136825402Y-98778023D01*
X136825402Y-98778023D02*
X136849211Y-98873261D01*
X136849211Y-98873261D02*
X136873021Y-98920880D01*
X136873021Y-98920880D02*
X136920640Y-98968500D01*
X136920640Y-98968500D02*
X136992068Y-98992309D01*
X136992068Y-98992309D02*
X137111116Y-98992309D01*
X136611116Y-98992309D02*
X136611116Y-98492309D01*
X136373021Y-98992309D02*
X136373021Y-98492309D01*
X136373021Y-98492309D02*
X136087307Y-98992309D01*
X136087307Y-98992309D02*
X136087307Y-98492309D01*
X149780944Y-104893109D02*
X149614278Y-105393109D01*
X149614278Y-105393109D02*
X149447611Y-104893109D01*
X149304754Y-105369300D02*
X149233326Y-105393109D01*
X149233326Y-105393109D02*
X149114278Y-105393109D01*
X149114278Y-105393109D02*
X149066659Y-105369300D01*
X149066659Y-105369300D02*
X149042850Y-105345490D01*
X149042850Y-105345490D02*
X149019040Y-105297871D01*
X149019040Y-105297871D02*
X149019040Y-105250252D01*
X149019040Y-105250252D02*
X149042850Y-105202633D01*
X149042850Y-105202633D02*
X149066659Y-105178823D01*
X149066659Y-105178823D02*
X149114278Y-105155014D01*
X149114278Y-105155014D02*
X149209516Y-105131204D01*
X149209516Y-105131204D02*
X149257135Y-105107395D01*
X149257135Y-105107395D02*
X149280945Y-105083585D01*
X149280945Y-105083585D02*
X149304754Y-105035966D01*
X149304754Y-105035966D02*
X149304754Y-104988347D01*
X149304754Y-104988347D02*
X149280945Y-104940728D01*
X149280945Y-104940728D02*
X149257135Y-104916919D01*
X149257135Y-104916919D02*
X149209516Y-104893109D01*
X149209516Y-104893109D02*
X149090469Y-104893109D01*
X149090469Y-104893109D02*
X149019040Y-104916919D01*
X148828564Y-105369300D02*
X148757136Y-105393109D01*
X148757136Y-105393109D02*
X148638088Y-105393109D01*
X148638088Y-105393109D02*
X148590469Y-105369300D01*
X148590469Y-105369300D02*
X148566660Y-105345490D01*
X148566660Y-105345490D02*
X148542850Y-105297871D01*
X148542850Y-105297871D02*
X148542850Y-105250252D01*
X148542850Y-105250252D02*
X148566660Y-105202633D01*
X148566660Y-105202633D02*
X148590469Y-105178823D01*
X148590469Y-105178823D02*
X148638088Y-105155014D01*
X148638088Y-105155014D02*
X148733326Y-105131204D01*
X148733326Y-105131204D02*
X148780945Y-105107395D01*
X148780945Y-105107395D02*
X148804755Y-105083585D01*
X148804755Y-105083585D02*
X148828564Y-105035966D01*
X148828564Y-105035966D02*
X148828564Y-104988347D01*
X148828564Y-104988347D02*
X148804755Y-104940728D01*
X148804755Y-104940728D02*
X148780945Y-104916919D01*
X148780945Y-104916919D02*
X148733326Y-104893109D01*
X148733326Y-104893109D02*
X148614279Y-104893109D01*
X148614279Y-104893109D02*
X148542850Y-104916919D01*
X136368202Y-101684709D02*
X136534868Y-101446614D01*
X136653916Y-101684709D02*
X136653916Y-101184709D01*
X136653916Y-101184709D02*
X136463440Y-101184709D01*
X136463440Y-101184709D02*
X136415821Y-101208519D01*
X136415821Y-101208519D02*
X136392011Y-101232328D01*
X136392011Y-101232328D02*
X136368202Y-101279947D01*
X136368202Y-101279947D02*
X136368202Y-101351376D01*
X136368202Y-101351376D02*
X136392011Y-101398995D01*
X136392011Y-101398995D02*
X136415821Y-101422804D01*
X136415821Y-101422804D02*
X136463440Y-101446614D01*
X136463440Y-101446614D02*
X136653916Y-101446614D01*
X145361344Y-108398309D02*
X145194678Y-108898309D01*
X145194678Y-108898309D02*
X145028011Y-108398309D01*
X144885154Y-108874500D02*
X144813726Y-108898309D01*
X144813726Y-108898309D02*
X144694678Y-108898309D01*
X144694678Y-108898309D02*
X144647059Y-108874500D01*
X144647059Y-108874500D02*
X144623250Y-108850690D01*
X144623250Y-108850690D02*
X144599440Y-108803071D01*
X144599440Y-108803071D02*
X144599440Y-108755452D01*
X144599440Y-108755452D02*
X144623250Y-108707833D01*
X144623250Y-108707833D02*
X144647059Y-108684023D01*
X144647059Y-108684023D02*
X144694678Y-108660214D01*
X144694678Y-108660214D02*
X144789916Y-108636404D01*
X144789916Y-108636404D02*
X144837535Y-108612595D01*
X144837535Y-108612595D02*
X144861345Y-108588785D01*
X144861345Y-108588785D02*
X144885154Y-108541166D01*
X144885154Y-108541166D02*
X144885154Y-108493547D01*
X144885154Y-108493547D02*
X144861345Y-108445928D01*
X144861345Y-108445928D02*
X144837535Y-108422119D01*
X144837535Y-108422119D02*
X144789916Y-108398309D01*
X144789916Y-108398309D02*
X144670869Y-108398309D01*
X144670869Y-108398309D02*
X144599440Y-108422119D01*
X144408964Y-108874500D02*
X144337536Y-108898309D01*
X144337536Y-108898309D02*
X144218488Y-108898309D01*
X144218488Y-108898309D02*
X144170869Y-108874500D01*
X144170869Y-108874500D02*
X144147060Y-108850690D01*
X144147060Y-108850690D02*
X144123250Y-108803071D01*
X144123250Y-108803071D02*
X144123250Y-108755452D01*
X144123250Y-108755452D02*
X144147060Y-108707833D01*
X144147060Y-108707833D02*
X144170869Y-108684023D01*
X144170869Y-108684023D02*
X144218488Y-108660214D01*
X144218488Y-108660214D02*
X144313726Y-108636404D01*
X144313726Y-108636404D02*
X144361345Y-108612595D01*
X144361345Y-108612595D02*
X144385155Y-108588785D01*
X144385155Y-108588785D02*
X144408964Y-108541166D01*
X144408964Y-108541166D02*
X144408964Y-108493547D01*
X144408964Y-108493547D02*
X144385155Y-108445928D01*
X144385155Y-108445928D02*
X144361345Y-108422119D01*
X144361345Y-108422119D02*
X144313726Y-108398309D01*
X144313726Y-108398309D02*
X144194679Y-108398309D01*
X144194679Y-108398309D02*
X144123250Y-108422119D01*
X140838602Y-108901490D02*
X140862411Y-108925300D01*
X140862411Y-108925300D02*
X140933840Y-108949109D01*
X140933840Y-108949109D02*
X140981459Y-108949109D01*
X140981459Y-108949109D02*
X141052887Y-108925300D01*
X141052887Y-108925300D02*
X141100506Y-108877680D01*
X141100506Y-108877680D02*
X141124316Y-108830061D01*
X141124316Y-108830061D02*
X141148125Y-108734823D01*
X141148125Y-108734823D02*
X141148125Y-108663395D01*
X141148125Y-108663395D02*
X141124316Y-108568157D01*
X141124316Y-108568157D02*
X141100506Y-108520538D01*
X141100506Y-108520538D02*
X141052887Y-108472919D01*
X141052887Y-108472919D02*
X140981459Y-108449109D01*
X140981459Y-108449109D02*
X140933840Y-108449109D01*
X140933840Y-108449109D02*
X140862411Y-108472919D01*
X140862411Y-108472919D02*
X140838602Y-108496728D01*
X137334944Y-94834709D02*
X137168278Y-95334709D01*
X137168278Y-95334709D02*
X137001611Y-94834709D01*
X136834945Y-95334709D02*
X136834945Y-94834709D01*
X136834945Y-94834709D02*
X136715897Y-94834709D01*
X136715897Y-94834709D02*
X136644469Y-94858519D01*
X136644469Y-94858519D02*
X136596850Y-94906138D01*
X136596850Y-94906138D02*
X136573040Y-94953757D01*
X136573040Y-94953757D02*
X136549231Y-95048995D01*
X136549231Y-95048995D02*
X136549231Y-95120423D01*
X136549231Y-95120423D02*
X136573040Y-95215661D01*
X136573040Y-95215661D02*
X136596850Y-95263280D01*
X136596850Y-95263280D02*
X136644469Y-95310900D01*
X136644469Y-95310900D02*
X136715897Y-95334709D01*
X136715897Y-95334709D02*
X136834945Y-95334709D01*
X136334945Y-95334709D02*
X136334945Y-94834709D01*
X136334945Y-94834709D02*
X136215897Y-94834709D01*
X136215897Y-94834709D02*
X136144469Y-94858519D01*
X136144469Y-94858519D02*
X136096850Y-94906138D01*
X136096850Y-94906138D02*
X136073040Y-94953757D01*
X136073040Y-94953757D02*
X136049231Y-95048995D01*
X136049231Y-95048995D02*
X136049231Y-95120423D01*
X136049231Y-95120423D02*
X136073040Y-95215661D01*
X136073040Y-95215661D02*
X136096850Y-95263280D01*
X136096850Y-95263280D02*
X136144469Y-95310900D01*
X136144469Y-95310900D02*
X136215897Y-95334709D01*
X136215897Y-95334709D02*
X136334945Y-95334709D01*
X137131744Y-105197909D02*
X136965078Y-105697909D01*
X136965078Y-105697909D02*
X136798411Y-105197909D01*
X136655554Y-105674100D02*
X136584126Y-105697909D01*
X136584126Y-105697909D02*
X136465078Y-105697909D01*
X136465078Y-105697909D02*
X136417459Y-105674100D01*
X136417459Y-105674100D02*
X136393650Y-105650290D01*
X136393650Y-105650290D02*
X136369840Y-105602671D01*
X136369840Y-105602671D02*
X136369840Y-105555052D01*
X136369840Y-105555052D02*
X136393650Y-105507433D01*
X136393650Y-105507433D02*
X136417459Y-105483623D01*
X136417459Y-105483623D02*
X136465078Y-105459814D01*
X136465078Y-105459814D02*
X136560316Y-105436004D01*
X136560316Y-105436004D02*
X136607935Y-105412195D01*
X136607935Y-105412195D02*
X136631745Y-105388385D01*
X136631745Y-105388385D02*
X136655554Y-105340766D01*
X136655554Y-105340766D02*
X136655554Y-105293147D01*
X136655554Y-105293147D02*
X136631745Y-105245528D01*
X136631745Y-105245528D02*
X136607935Y-105221719D01*
X136607935Y-105221719D02*
X136560316Y-105197909D01*
X136560316Y-105197909D02*
X136441269Y-105197909D01*
X136441269Y-105197909D02*
X136369840Y-105221719D01*
X136179364Y-105674100D02*
X136107936Y-105697909D01*
X136107936Y-105697909D02*
X135988888Y-105697909D01*
X135988888Y-105697909D02*
X135941269Y-105674100D01*
X135941269Y-105674100D02*
X135917460Y-105650290D01*
X135917460Y-105650290D02*
X135893650Y-105602671D01*
X135893650Y-105602671D02*
X135893650Y-105555052D01*
X135893650Y-105555052D02*
X135917460Y-105507433D01*
X135917460Y-105507433D02*
X135941269Y-105483623D01*
X135941269Y-105483623D02*
X135988888Y-105459814D01*
X135988888Y-105459814D02*
X136084126Y-105436004D01*
X136084126Y-105436004D02*
X136131745Y-105412195D01*
X136131745Y-105412195D02*
X136155555Y-105388385D01*
X136155555Y-105388385D02*
X136179364Y-105340766D01*
X136179364Y-105340766D02*
X136179364Y-105293147D01*
X136179364Y-105293147D02*
X136155555Y-105245528D01*
X136155555Y-105245528D02*
X136131745Y-105221719D01*
X136131745Y-105221719D02*
X136084126Y-105197909D01*
X136084126Y-105197909D02*
X135965079Y-105197909D01*
X135965079Y-105197909D02*
X135893650Y-105221719D01*
X149677802Y-93204290D02*
X149701611Y-93228100D01*
X149701611Y-93228100D02*
X149773040Y-93251909D01*
X149773040Y-93251909D02*
X149820659Y-93251909D01*
X149820659Y-93251909D02*
X149892087Y-93228100D01*
X149892087Y-93228100D02*
X149939706Y-93180480D01*
X149939706Y-93180480D02*
X149963516Y-93132861D01*
X149963516Y-93132861D02*
X149987325Y-93037623D01*
X149987325Y-93037623D02*
X149987325Y-92966195D01*
X149987325Y-92966195D02*
X149963516Y-92870957D01*
X149963516Y-92870957D02*
X149939706Y-92823338D01*
X149939706Y-92823338D02*
X149892087Y-92775719D01*
X149892087Y-92775719D02*
X149820659Y-92751909D01*
X149820659Y-92751909D02*
X149773040Y-92751909D01*
X149773040Y-92751909D02*
X149701611Y-92775719D01*
X149701611Y-92775719D02*
X149677802Y-92799528D01*
X150187344Y-95342709D02*
X150020678Y-95842709D01*
X150020678Y-95842709D02*
X149854011Y-95342709D01*
X149687345Y-95842709D02*
X149687345Y-95342709D01*
X149687345Y-95342709D02*
X149568297Y-95342709D01*
X149568297Y-95342709D02*
X149496869Y-95366519D01*
X149496869Y-95366519D02*
X149449250Y-95414138D01*
X149449250Y-95414138D02*
X149425440Y-95461757D01*
X149425440Y-95461757D02*
X149401631Y-95556995D01*
X149401631Y-95556995D02*
X149401631Y-95628423D01*
X149401631Y-95628423D02*
X149425440Y-95723661D01*
X149425440Y-95723661D02*
X149449250Y-95771280D01*
X149449250Y-95771280D02*
X149496869Y-95818900D01*
X149496869Y-95818900D02*
X149568297Y-95842709D01*
X149568297Y-95842709D02*
X149687345Y-95842709D01*
X149187345Y-95842709D02*
X149187345Y-95342709D01*
X149187345Y-95342709D02*
X149068297Y-95342709D01*
X149068297Y-95342709D02*
X148996869Y-95366519D01*
X148996869Y-95366519D02*
X148949250Y-95414138D01*
X148949250Y-95414138D02*
X148925440Y-95461757D01*
X148925440Y-95461757D02*
X148901631Y-95556995D01*
X148901631Y-95556995D02*
X148901631Y-95628423D01*
X148901631Y-95628423D02*
X148925440Y-95723661D01*
X148925440Y-95723661D02*
X148949250Y-95771280D01*
X148949250Y-95771280D02*
X148996869Y-95818900D01*
X148996869Y-95818900D02*
X149068297Y-95842709D01*
X149068297Y-95842709D02*
X149187345Y-95842709D01*
X146732944Y-92802709D02*
X146566278Y-93302709D01*
X146566278Y-93302709D02*
X146399611Y-92802709D01*
X146256754Y-93278900D02*
X146185326Y-93302709D01*
X146185326Y-93302709D02*
X146066278Y-93302709D01*
X146066278Y-93302709D02*
X146018659Y-93278900D01*
X146018659Y-93278900D02*
X145994850Y-93255090D01*
X145994850Y-93255090D02*
X145971040Y-93207471D01*
X145971040Y-93207471D02*
X145971040Y-93159852D01*
X145971040Y-93159852D02*
X145994850Y-93112233D01*
X145994850Y-93112233D02*
X146018659Y-93088423D01*
X146018659Y-93088423D02*
X146066278Y-93064614D01*
X146066278Y-93064614D02*
X146161516Y-93040804D01*
X146161516Y-93040804D02*
X146209135Y-93016995D01*
X146209135Y-93016995D02*
X146232945Y-92993185D01*
X146232945Y-92993185D02*
X146256754Y-92945566D01*
X146256754Y-92945566D02*
X146256754Y-92897947D01*
X146256754Y-92897947D02*
X146232945Y-92850328D01*
X146232945Y-92850328D02*
X146209135Y-92826519D01*
X146209135Y-92826519D02*
X146161516Y-92802709D01*
X146161516Y-92802709D02*
X146042469Y-92802709D01*
X146042469Y-92802709D02*
X145971040Y-92826519D01*
X145780564Y-93278900D02*
X145709136Y-93302709D01*
X145709136Y-93302709D02*
X145590088Y-93302709D01*
X145590088Y-93302709D02*
X145542469Y-93278900D01*
X145542469Y-93278900D02*
X145518660Y-93255090D01*
X145518660Y-93255090D02*
X145494850Y-93207471D01*
X145494850Y-93207471D02*
X145494850Y-93159852D01*
X145494850Y-93159852D02*
X145518660Y-93112233D01*
X145518660Y-93112233D02*
X145542469Y-93088423D01*
X145542469Y-93088423D02*
X145590088Y-93064614D01*
X145590088Y-93064614D02*
X145685326Y-93040804D01*
X145685326Y-93040804D02*
X145732945Y-93016995D01*
X145732945Y-93016995D02*
X145756755Y-92993185D01*
X145756755Y-92993185D02*
X145780564Y-92945566D01*
X145780564Y-92945566D02*
X145780564Y-92897947D01*
X145780564Y-92897947D02*
X145756755Y-92850328D01*
X145756755Y-92850328D02*
X145732945Y-92826519D01*
X145732945Y-92826519D02*
X145685326Y-92802709D01*
X145685326Y-92802709D02*
X145566279Y-92802709D01*
X145566279Y-92802709D02*
X145494850Y-92826519D01*
D12*
%TO.C,D1*%
X141126346Y-105632860D02*
X144894513Y-104261359D01*
X141126346Y-105632860D02*
X140442305Y-103753475D01*
X140442305Y-103753475D02*
X144210473Y-102381974D01*
%TO.C,D2*%
D13*
X145085000Y-97262000D02*
X145085000Y-96662000D01*
X145685000Y-96662000D01*
X145085000Y-97262000D01*
G36*
X145085000Y-97262000D02*
G01*
X145085000Y-96662000D01*
X145685000Y-96662000D01*
X145085000Y-97262000D01*
G37*
%TD*%
M02*
