%TF.GenerationSoftware,KiCad,Pcbnew,7.0.5*%
%TF.CreationDate,2024-03-07T22:21:13-05:00*%
%TF.ProjectId,amoebe_streamline,616d6f65-6265-45f7-9374-7265616d6c69,rev?*%
%TF.SameCoordinates,Original*%
%TF.FileFunction,Drillmap*%
%TF.FilePolarity,Positive*%
%FSLAX45Y45*%
G04 Gerber Fmt 4.5, Leading zero omitted, Abs format (unit mm)*
G04 Created by KiCad (PCBNEW 7.0.5) date 2024-03-07 22:21:13*
%MOMM*%
%LPD*%
G01*
G04 APERTURE LIST*
%ADD10C,0.100000*%
%ADD11C,0.200000*%
%ADD12C,0.040000*%
%ADD13C,0.050000*%
%ADD14C,0.149860*%
G04 APERTURE END LIST*
D10*
X14485549Y-9080429D02*
G75*
G03*
X14633011Y-9080429I73731J0D01*
G01*
X13931829Y-9080429D02*
G75*
G03*
X14079291Y-9080429I73731J0D01*
G01*
X13779500Y-9080500D02*
X13931829Y-9080571D01*
X14633011Y-9080429D02*
X14795500Y-9080500D01*
X14079291Y-9080571D02*
X14485549Y-9080429D01*
X14079291Y-10985571D02*
X14484208Y-10985500D01*
X14631670Y-10985500D02*
X14795500Y-10985500D01*
X13779500Y-10985500D02*
X13931829Y-10985571D01*
X14631670Y-10985500D02*
G75*
G03*
X14484208Y-10985500I-73731J0D01*
G01*
X13398500Y-9588500D02*
G75*
G03*
X13335000Y-9652000I0J-63500D01*
G01*
X13525500Y-9207500D02*
X13652500Y-9207500D01*
X15240000Y-9652000D02*
G75*
G03*
X15176500Y-9588500I-63500J0D01*
G01*
X14452600Y-9373950D02*
X14124940Y-9373950D01*
X15113000Y-9271000D02*
X15113000Y-9525000D01*
X14859000Y-9144000D02*
G75*
G03*
X14922500Y-9207500I63500J0D01*
G01*
X13652500Y-9207500D02*
G75*
G03*
X13716000Y-9144000I0J63500D01*
G01*
X15240000Y-10160000D02*
X15240000Y-10414000D01*
X15240000Y-9906000D02*
X15240000Y-9652000D01*
X13462000Y-10795000D02*
G75*
G03*
X13525500Y-10858500I63500J0D01*
G01*
X13779500Y-9080500D02*
G75*
G03*
X13716000Y-9144000I0J-63500D01*
G01*
X13335000Y-10414000D02*
G75*
G03*
X13398500Y-10477500I63500J0D01*
G01*
X13335000Y-9906000D02*
X13335000Y-9652000D01*
X14452600Y-9676050D02*
X14452600Y-9373950D01*
X14922500Y-10858500D02*
G75*
G03*
X14859000Y-10922000I0J-63500D01*
G01*
X13716000Y-10922000D02*
G75*
G03*
X13779500Y-10985500I63500J0D01*
G01*
X13335000Y-10160000D02*
X13335000Y-10414000D01*
X14859000Y-9144000D02*
G75*
G03*
X14795500Y-9080500I-63500J0D01*
G01*
X13462000Y-9271000D02*
X13462000Y-9525000D01*
X13335000Y-10160000D02*
G75*
G03*
X13335000Y-9906000I0J127000D01*
G01*
X15049500Y-10858500D02*
G75*
G03*
X15113000Y-10795000I0J63500D01*
G01*
X13525500Y-9207500D02*
G75*
G03*
X13462000Y-9271000I0J-63500D01*
G01*
X15176500Y-10477500D02*
G75*
G03*
X15113000Y-10541000I0J-63500D01*
G01*
X15049500Y-10858500D02*
X14922500Y-10858500D01*
X15113000Y-9271000D02*
G75*
G03*
X15049500Y-9207500I-63500J0D01*
G01*
X13716000Y-10922000D02*
G75*
G03*
X13652500Y-10858500I-63500J0D01*
G01*
X15176500Y-10477500D02*
G75*
G03*
X15240000Y-10414000I0J63500D01*
G01*
X13525500Y-10858500D02*
X13652500Y-10858500D01*
X15113000Y-9525000D02*
G75*
G03*
X15176500Y-9588500I63500J0D01*
G01*
X14124940Y-9676050D02*
X14452600Y-9676050D01*
X13398500Y-9588500D02*
G75*
G03*
X13462000Y-9525000I0J63500D01*
G01*
X14922500Y-9207500D02*
X15049500Y-9207500D01*
X13462000Y-10541000D02*
G75*
G03*
X13398500Y-10477500I-63500J0D01*
G01*
X15240000Y-9906000D02*
G75*
G03*
X15240000Y-10160000I0J-127000D01*
G01*
X14124940Y-9373950D02*
X14124940Y-9676050D01*
X14079291Y-10985571D02*
G75*
G03*
X13931829Y-10985571I-73731J0D01*
G01*
X15113000Y-10795000D02*
X15113000Y-10541000D01*
X14795500Y-10985500D02*
G75*
G03*
X14859000Y-10922000I0J63500D01*
G01*
X13462000Y-10541000D02*
X13462000Y-10795000D01*
D11*
D12*
X13848400Y-9403400D02*
X13888400Y-9443400D01*
X13888400Y-9403400D02*
X13848400Y-9443400D01*
X14270040Y-10668320D02*
X14310040Y-10708320D01*
X14310040Y-10668320D02*
X14270040Y-10708320D01*
X14435249Y-10312167D02*
X14475249Y-10352167D01*
X14475249Y-10312167D02*
X14435249Y-10352167D01*
X14442500Y-9705000D02*
X14482500Y-9745000D01*
X14482500Y-9705000D02*
X14442500Y-9745000D01*
X14508800Y-9815550D02*
X14548800Y-9855550D01*
X14548800Y-9815550D02*
X14508800Y-9855550D01*
X14672339Y-9729499D02*
X14712339Y-9769499D01*
X14712339Y-9729499D02*
X14672339Y-9769499D01*
D13*
X13680040Y-9652000D02*
G75*
G03*
X13680040Y-9652000I-25000J0D01*
G01*
X13680040Y-9777000D02*
G75*
G03*
X13680040Y-9777000I-25000J0D01*
G01*
X13685120Y-10266680D02*
G75*
G03*
X13685120Y-10266680I-25000J0D01*
G01*
X13685120Y-10391680D02*
G75*
G03*
X13685120Y-10391680I-25000J0D01*
G01*
X14230680Y-10861040D02*
G75*
G03*
X14230680Y-10861040I-25000J0D01*
G01*
X14355680Y-10861040D02*
G75*
G03*
X14355680Y-10861040I-25000J0D01*
G01*
X14794560Y-9337040D02*
G75*
G03*
X14794560Y-9337040I-25000J0D01*
G01*
X14919560Y-9337040D02*
G75*
G03*
X14919560Y-9337040I-25000J0D01*
G01*
X14939880Y-9659080D02*
G75*
G03*
X14939880Y-9659080I-25000J0D01*
G01*
X14939880Y-9784080D02*
G75*
G03*
X14939880Y-9784080I-25000J0D01*
G01*
X14939880Y-10268680D02*
G75*
G03*
X14939880Y-10268680I-25000J0D01*
G01*
X14939880Y-10393680D02*
G75*
G03*
X14939880Y-10393680I-25000J0D01*
G01*
D14*
X13906490Y-10211860D02*
X13906490Y-10361720D01*
X13831560Y-10286790D02*
X13981420Y-10286790D01*
X14033490Y-10465860D02*
X14033490Y-10615720D01*
X13958560Y-10540790D02*
X14108420Y-10540790D01*
X14541490Y-10465860D02*
X14541490Y-10615720D01*
X14466560Y-10540790D02*
X14616420Y-10540790D01*
X14668490Y-10211860D02*
X14668490Y-10361720D01*
X14593560Y-10286790D02*
X14743420Y-10286790D01*
D11*
X13590777Y-11302055D02*
X13590777Y-11102055D01*
X13590777Y-11102055D02*
X13638396Y-11102055D01*
X13638396Y-11102055D02*
X13666967Y-11111579D01*
X13666967Y-11111579D02*
X13686015Y-11130626D01*
X13686015Y-11130626D02*
X13695539Y-11149674D01*
X13695539Y-11149674D02*
X13705062Y-11187769D01*
X13705062Y-11187769D02*
X13705062Y-11216341D01*
X13705062Y-11216341D02*
X13695539Y-11254436D01*
X13695539Y-11254436D02*
X13686015Y-11273483D01*
X13686015Y-11273483D02*
X13666967Y-11292531D01*
X13666967Y-11292531D02*
X13638396Y-11302055D01*
X13638396Y-11302055D02*
X13590777Y-11302055D01*
X13790777Y-11302055D02*
X13790777Y-11168722D01*
X13790777Y-11206817D02*
X13800301Y-11187769D01*
X13800301Y-11187769D02*
X13809824Y-11178245D01*
X13809824Y-11178245D02*
X13828872Y-11168722D01*
X13828872Y-11168722D02*
X13847920Y-11168722D01*
X13914586Y-11302055D02*
X13914586Y-11168722D01*
X13914586Y-11102055D02*
X13905062Y-11111579D01*
X13905062Y-11111579D02*
X13914586Y-11121103D01*
X13914586Y-11121103D02*
X13924110Y-11111579D01*
X13924110Y-11111579D02*
X13914586Y-11102055D01*
X13914586Y-11102055D02*
X13914586Y-11121103D01*
X14038396Y-11302055D02*
X14019348Y-11292531D01*
X14019348Y-11292531D02*
X14009824Y-11273483D01*
X14009824Y-11273483D02*
X14009824Y-11102055D01*
X14143158Y-11302055D02*
X14124110Y-11292531D01*
X14124110Y-11292531D02*
X14114586Y-11273483D01*
X14114586Y-11273483D02*
X14114586Y-11102055D01*
X14371729Y-11302055D02*
X14371729Y-11102055D01*
X14371729Y-11102055D02*
X14438396Y-11244912D01*
X14438396Y-11244912D02*
X14505062Y-11102055D01*
X14505062Y-11102055D02*
X14505062Y-11302055D01*
X14686015Y-11302055D02*
X14686015Y-11197293D01*
X14686015Y-11197293D02*
X14676491Y-11178245D01*
X14676491Y-11178245D02*
X14657443Y-11168722D01*
X14657443Y-11168722D02*
X14619348Y-11168722D01*
X14619348Y-11168722D02*
X14600301Y-11178245D01*
X14686015Y-11292531D02*
X14666967Y-11302055D01*
X14666967Y-11302055D02*
X14619348Y-11302055D01*
X14619348Y-11302055D02*
X14600301Y-11292531D01*
X14600301Y-11292531D02*
X14590777Y-11273483D01*
X14590777Y-11273483D02*
X14590777Y-11254436D01*
X14590777Y-11254436D02*
X14600301Y-11235388D01*
X14600301Y-11235388D02*
X14619348Y-11225864D01*
X14619348Y-11225864D02*
X14666967Y-11225864D01*
X14666967Y-11225864D02*
X14686015Y-11216341D01*
X14781253Y-11168722D02*
X14781253Y-11368722D01*
X14781253Y-11178245D02*
X14800301Y-11168722D01*
X14800301Y-11168722D02*
X14838396Y-11168722D01*
X14838396Y-11168722D02*
X14857443Y-11178245D01*
X14857443Y-11178245D02*
X14866967Y-11187769D01*
X14866967Y-11187769D02*
X14876491Y-11206817D01*
X14876491Y-11206817D02*
X14876491Y-11263960D01*
X14876491Y-11263960D02*
X14866967Y-11283007D01*
X14866967Y-11283007D02*
X14857443Y-11292531D01*
X14857443Y-11292531D02*
X14838396Y-11302055D01*
X14838396Y-11302055D02*
X14800301Y-11302055D01*
X14800301Y-11302055D02*
X14781253Y-11292531D01*
X14962205Y-11283007D02*
X14971729Y-11292531D01*
X14971729Y-11292531D02*
X14962205Y-11302055D01*
X14962205Y-11302055D02*
X14952682Y-11292531D01*
X14952682Y-11292531D02*
X14962205Y-11283007D01*
X14962205Y-11283007D02*
X14962205Y-11302055D01*
X14962205Y-11178245D02*
X14971729Y-11187769D01*
X14971729Y-11187769D02*
X14962205Y-11197293D01*
X14962205Y-11197293D02*
X14952682Y-11187769D01*
X14952682Y-11187769D02*
X14962205Y-11178245D01*
X14962205Y-11178245D02*
X14962205Y-11197293D01*
D12*
X13290000Y-11610571D02*
X13330000Y-11650571D01*
X13330000Y-11610571D02*
X13290000Y-11650571D01*
D11*
X13628872Y-11522055D02*
X13647920Y-11522055D01*
X13647920Y-11522055D02*
X13666967Y-11531579D01*
X13666967Y-11531579D02*
X13676491Y-11541103D01*
X13676491Y-11541103D02*
X13686015Y-11560150D01*
X13686015Y-11560150D02*
X13695539Y-11598245D01*
X13695539Y-11598245D02*
X13695539Y-11645864D01*
X13695539Y-11645864D02*
X13686015Y-11683960D01*
X13686015Y-11683960D02*
X13676491Y-11703007D01*
X13676491Y-11703007D02*
X13666967Y-11712531D01*
X13666967Y-11712531D02*
X13647920Y-11722055D01*
X13647920Y-11722055D02*
X13628872Y-11722055D01*
X13628872Y-11722055D02*
X13609824Y-11712531D01*
X13609824Y-11712531D02*
X13600301Y-11703007D01*
X13600301Y-11703007D02*
X13590777Y-11683960D01*
X13590777Y-11683960D02*
X13581253Y-11645864D01*
X13581253Y-11645864D02*
X13581253Y-11598245D01*
X13581253Y-11598245D02*
X13590777Y-11560150D01*
X13590777Y-11560150D02*
X13600301Y-11541103D01*
X13600301Y-11541103D02*
X13609824Y-11531579D01*
X13609824Y-11531579D02*
X13628872Y-11522055D01*
X13781253Y-11703007D02*
X13790777Y-11712531D01*
X13790777Y-11712531D02*
X13781253Y-11722055D01*
X13781253Y-11722055D02*
X13771729Y-11712531D01*
X13771729Y-11712531D02*
X13781253Y-11703007D01*
X13781253Y-11703007D02*
X13781253Y-11722055D01*
X13962205Y-11588722D02*
X13962205Y-11722055D01*
X13914586Y-11512531D02*
X13866967Y-11655388D01*
X13866967Y-11655388D02*
X13990777Y-11655388D01*
X14105062Y-11522055D02*
X14124110Y-11522055D01*
X14124110Y-11522055D02*
X14143158Y-11531579D01*
X14143158Y-11531579D02*
X14152682Y-11541103D01*
X14152682Y-11541103D02*
X14162205Y-11560150D01*
X14162205Y-11560150D02*
X14171729Y-11598245D01*
X14171729Y-11598245D02*
X14171729Y-11645864D01*
X14171729Y-11645864D02*
X14162205Y-11683960D01*
X14162205Y-11683960D02*
X14152682Y-11703007D01*
X14152682Y-11703007D02*
X14143158Y-11712531D01*
X14143158Y-11712531D02*
X14124110Y-11722055D01*
X14124110Y-11722055D02*
X14105062Y-11722055D01*
X14105062Y-11722055D02*
X14086015Y-11712531D01*
X14086015Y-11712531D02*
X14076491Y-11703007D01*
X14076491Y-11703007D02*
X14066967Y-11683960D01*
X14066967Y-11683960D02*
X14057443Y-11645864D01*
X14057443Y-11645864D02*
X14057443Y-11598245D01*
X14057443Y-11598245D02*
X14066967Y-11560150D01*
X14066967Y-11560150D02*
X14076491Y-11541103D01*
X14076491Y-11541103D02*
X14086015Y-11531579D01*
X14086015Y-11531579D02*
X14105062Y-11522055D01*
X14295539Y-11522055D02*
X14314586Y-11522055D01*
X14314586Y-11522055D02*
X14333634Y-11531579D01*
X14333634Y-11531579D02*
X14343158Y-11541103D01*
X14343158Y-11541103D02*
X14352682Y-11560150D01*
X14352682Y-11560150D02*
X14362205Y-11598245D01*
X14362205Y-11598245D02*
X14362205Y-11645864D01*
X14362205Y-11645864D02*
X14352682Y-11683960D01*
X14352682Y-11683960D02*
X14343158Y-11703007D01*
X14343158Y-11703007D02*
X14333634Y-11712531D01*
X14333634Y-11712531D02*
X14314586Y-11722055D01*
X14314586Y-11722055D02*
X14295539Y-11722055D01*
X14295539Y-11722055D02*
X14276491Y-11712531D01*
X14276491Y-11712531D02*
X14266967Y-11703007D01*
X14266967Y-11703007D02*
X14257443Y-11683960D01*
X14257443Y-11683960D02*
X14247920Y-11645864D01*
X14247920Y-11645864D02*
X14247920Y-11598245D01*
X14247920Y-11598245D02*
X14257443Y-11560150D01*
X14257443Y-11560150D02*
X14266967Y-11541103D01*
X14266967Y-11541103D02*
X14276491Y-11531579D01*
X14276491Y-11531579D02*
X14295539Y-11522055D01*
X14447920Y-11722055D02*
X14447920Y-11588722D01*
X14447920Y-11607769D02*
X14457443Y-11598245D01*
X14457443Y-11598245D02*
X14476491Y-11588722D01*
X14476491Y-11588722D02*
X14505063Y-11588722D01*
X14505063Y-11588722D02*
X14524110Y-11598245D01*
X14524110Y-11598245D02*
X14533634Y-11617293D01*
X14533634Y-11617293D02*
X14533634Y-11722055D01*
X14533634Y-11617293D02*
X14543158Y-11598245D01*
X14543158Y-11598245D02*
X14562205Y-11588722D01*
X14562205Y-11588722D02*
X14590777Y-11588722D01*
X14590777Y-11588722D02*
X14609824Y-11598245D01*
X14609824Y-11598245D02*
X14619348Y-11617293D01*
X14619348Y-11617293D02*
X14619348Y-11722055D01*
X14714586Y-11722055D02*
X14714586Y-11588722D01*
X14714586Y-11607769D02*
X14724110Y-11598245D01*
X14724110Y-11598245D02*
X14743158Y-11588722D01*
X14743158Y-11588722D02*
X14771729Y-11588722D01*
X14771729Y-11588722D02*
X14790777Y-11598245D01*
X14790777Y-11598245D02*
X14800301Y-11617293D01*
X14800301Y-11617293D02*
X14800301Y-11722055D01*
X14800301Y-11617293D02*
X14809824Y-11598245D01*
X14809824Y-11598245D02*
X14828872Y-11588722D01*
X14828872Y-11588722D02*
X14857443Y-11588722D01*
X14857443Y-11588722D02*
X14876491Y-11598245D01*
X14876491Y-11598245D02*
X14886015Y-11617293D01*
X14886015Y-11617293D02*
X14886015Y-11722055D01*
X15276491Y-11512531D02*
X15105063Y-11769674D01*
X15533634Y-11522055D02*
X15552682Y-11522055D01*
X15552682Y-11522055D02*
X15571729Y-11531579D01*
X15571729Y-11531579D02*
X15581253Y-11541103D01*
X15581253Y-11541103D02*
X15590777Y-11560150D01*
X15590777Y-11560150D02*
X15600301Y-11598245D01*
X15600301Y-11598245D02*
X15600301Y-11645864D01*
X15600301Y-11645864D02*
X15590777Y-11683960D01*
X15590777Y-11683960D02*
X15581253Y-11703007D01*
X15581253Y-11703007D02*
X15571729Y-11712531D01*
X15571729Y-11712531D02*
X15552682Y-11722055D01*
X15552682Y-11722055D02*
X15533634Y-11722055D01*
X15533634Y-11722055D02*
X15514586Y-11712531D01*
X15514586Y-11712531D02*
X15505063Y-11703007D01*
X15505063Y-11703007D02*
X15495539Y-11683960D01*
X15495539Y-11683960D02*
X15486015Y-11645864D01*
X15486015Y-11645864D02*
X15486015Y-11598245D01*
X15486015Y-11598245D02*
X15495539Y-11560150D01*
X15495539Y-11560150D02*
X15505063Y-11541103D01*
X15505063Y-11541103D02*
X15514586Y-11531579D01*
X15514586Y-11531579D02*
X15533634Y-11522055D01*
X15686015Y-11703007D02*
X15695539Y-11712531D01*
X15695539Y-11712531D02*
X15686015Y-11722055D01*
X15686015Y-11722055D02*
X15676491Y-11712531D01*
X15676491Y-11712531D02*
X15686015Y-11703007D01*
X15686015Y-11703007D02*
X15686015Y-11722055D01*
X15819348Y-11522055D02*
X15838396Y-11522055D01*
X15838396Y-11522055D02*
X15857444Y-11531579D01*
X15857444Y-11531579D02*
X15866967Y-11541103D01*
X15866967Y-11541103D02*
X15876491Y-11560150D01*
X15876491Y-11560150D02*
X15886015Y-11598245D01*
X15886015Y-11598245D02*
X15886015Y-11645864D01*
X15886015Y-11645864D02*
X15876491Y-11683960D01*
X15876491Y-11683960D02*
X15866967Y-11703007D01*
X15866967Y-11703007D02*
X15857444Y-11712531D01*
X15857444Y-11712531D02*
X15838396Y-11722055D01*
X15838396Y-11722055D02*
X15819348Y-11722055D01*
X15819348Y-11722055D02*
X15800301Y-11712531D01*
X15800301Y-11712531D02*
X15790777Y-11703007D01*
X15790777Y-11703007D02*
X15781253Y-11683960D01*
X15781253Y-11683960D02*
X15771729Y-11645864D01*
X15771729Y-11645864D02*
X15771729Y-11598245D01*
X15771729Y-11598245D02*
X15781253Y-11560150D01*
X15781253Y-11560150D02*
X15790777Y-11541103D01*
X15790777Y-11541103D02*
X15800301Y-11531579D01*
X15800301Y-11531579D02*
X15819348Y-11522055D01*
X16076491Y-11722055D02*
X15962206Y-11722055D01*
X16019348Y-11722055D02*
X16019348Y-11522055D01*
X16019348Y-11522055D02*
X16000301Y-11550626D01*
X16000301Y-11550626D02*
X15981253Y-11569674D01*
X15981253Y-11569674D02*
X15962206Y-11579198D01*
X16257444Y-11522055D02*
X16162206Y-11522055D01*
X16162206Y-11522055D02*
X16152682Y-11617293D01*
X16152682Y-11617293D02*
X16162206Y-11607769D01*
X16162206Y-11607769D02*
X16181253Y-11598245D01*
X16181253Y-11598245D02*
X16228872Y-11598245D01*
X16228872Y-11598245D02*
X16247920Y-11607769D01*
X16247920Y-11607769D02*
X16257444Y-11617293D01*
X16257444Y-11617293D02*
X16266967Y-11636341D01*
X16266967Y-11636341D02*
X16266967Y-11683960D01*
X16266967Y-11683960D02*
X16257444Y-11703007D01*
X16257444Y-11703007D02*
X16247920Y-11712531D01*
X16247920Y-11712531D02*
X16228872Y-11722055D01*
X16228872Y-11722055D02*
X16181253Y-11722055D01*
X16181253Y-11722055D02*
X16162206Y-11712531D01*
X16162206Y-11712531D02*
X16152682Y-11703007D01*
X16333634Y-11522055D02*
X16466967Y-11522055D01*
X16466967Y-11522055D02*
X16381253Y-11722055D01*
X16533634Y-11522055D02*
X16533634Y-11560150D01*
X16609825Y-11522055D02*
X16609825Y-11560150D01*
X16905063Y-11798245D02*
X16895539Y-11788722D01*
X16895539Y-11788722D02*
X16876491Y-11760150D01*
X16876491Y-11760150D02*
X16866968Y-11741103D01*
X16866968Y-11741103D02*
X16857444Y-11712531D01*
X16857444Y-11712531D02*
X16847920Y-11664912D01*
X16847920Y-11664912D02*
X16847920Y-11626817D01*
X16847920Y-11626817D02*
X16857444Y-11579198D01*
X16857444Y-11579198D02*
X16866968Y-11550626D01*
X16866968Y-11550626D02*
X16876491Y-11531579D01*
X16876491Y-11531579D02*
X16895539Y-11503007D01*
X16895539Y-11503007D02*
X16905063Y-11493483D01*
X17066968Y-11522055D02*
X17028872Y-11522055D01*
X17028872Y-11522055D02*
X17009825Y-11531579D01*
X17009825Y-11531579D02*
X17000301Y-11541103D01*
X17000301Y-11541103D02*
X16981253Y-11569674D01*
X16981253Y-11569674D02*
X16971730Y-11607769D01*
X16971730Y-11607769D02*
X16971730Y-11683960D01*
X16971730Y-11683960D02*
X16981253Y-11703007D01*
X16981253Y-11703007D02*
X16990777Y-11712531D01*
X16990777Y-11712531D02*
X17009825Y-11722055D01*
X17009825Y-11722055D02*
X17047920Y-11722055D01*
X17047920Y-11722055D02*
X17066968Y-11712531D01*
X17066968Y-11712531D02*
X17076491Y-11703007D01*
X17076491Y-11703007D02*
X17086015Y-11683960D01*
X17086015Y-11683960D02*
X17086015Y-11636341D01*
X17086015Y-11636341D02*
X17076491Y-11617293D01*
X17076491Y-11617293D02*
X17066968Y-11607769D01*
X17066968Y-11607769D02*
X17047920Y-11598245D01*
X17047920Y-11598245D02*
X17009825Y-11598245D01*
X17009825Y-11598245D02*
X16990777Y-11607769D01*
X16990777Y-11607769D02*
X16981253Y-11617293D01*
X16981253Y-11617293D02*
X16971730Y-11636341D01*
X17324111Y-11722055D02*
X17324111Y-11522055D01*
X17409825Y-11722055D02*
X17409825Y-11617293D01*
X17409825Y-11617293D02*
X17400301Y-11598245D01*
X17400301Y-11598245D02*
X17381253Y-11588722D01*
X17381253Y-11588722D02*
X17352682Y-11588722D01*
X17352682Y-11588722D02*
X17333634Y-11598245D01*
X17333634Y-11598245D02*
X17324111Y-11607769D01*
X17533634Y-11722055D02*
X17514587Y-11712531D01*
X17514587Y-11712531D02*
X17505063Y-11703007D01*
X17505063Y-11703007D02*
X17495539Y-11683960D01*
X17495539Y-11683960D02*
X17495539Y-11626817D01*
X17495539Y-11626817D02*
X17505063Y-11607769D01*
X17505063Y-11607769D02*
X17514587Y-11598245D01*
X17514587Y-11598245D02*
X17533634Y-11588722D01*
X17533634Y-11588722D02*
X17562206Y-11588722D01*
X17562206Y-11588722D02*
X17581253Y-11598245D01*
X17581253Y-11598245D02*
X17590777Y-11607769D01*
X17590777Y-11607769D02*
X17600301Y-11626817D01*
X17600301Y-11626817D02*
X17600301Y-11683960D01*
X17600301Y-11683960D02*
X17590777Y-11703007D01*
X17590777Y-11703007D02*
X17581253Y-11712531D01*
X17581253Y-11712531D02*
X17562206Y-11722055D01*
X17562206Y-11722055D02*
X17533634Y-11722055D01*
X17714587Y-11722055D02*
X17695539Y-11712531D01*
X17695539Y-11712531D02*
X17686015Y-11693483D01*
X17686015Y-11693483D02*
X17686015Y-11522055D01*
X17866968Y-11712531D02*
X17847920Y-11722055D01*
X17847920Y-11722055D02*
X17809825Y-11722055D01*
X17809825Y-11722055D02*
X17790777Y-11712531D01*
X17790777Y-11712531D02*
X17781253Y-11693483D01*
X17781253Y-11693483D02*
X17781253Y-11617293D01*
X17781253Y-11617293D02*
X17790777Y-11598245D01*
X17790777Y-11598245D02*
X17809825Y-11588722D01*
X17809825Y-11588722D02*
X17847920Y-11588722D01*
X17847920Y-11588722D02*
X17866968Y-11598245D01*
X17866968Y-11598245D02*
X17876492Y-11617293D01*
X17876492Y-11617293D02*
X17876492Y-11636341D01*
X17876492Y-11636341D02*
X17781253Y-11655388D01*
X17952682Y-11712531D02*
X17971730Y-11722055D01*
X17971730Y-11722055D02*
X18009825Y-11722055D01*
X18009825Y-11722055D02*
X18028873Y-11712531D01*
X18028873Y-11712531D02*
X18038396Y-11693483D01*
X18038396Y-11693483D02*
X18038396Y-11683960D01*
X18038396Y-11683960D02*
X18028873Y-11664912D01*
X18028873Y-11664912D02*
X18009825Y-11655388D01*
X18009825Y-11655388D02*
X17981253Y-11655388D01*
X17981253Y-11655388D02*
X17962206Y-11645864D01*
X17962206Y-11645864D02*
X17952682Y-11626817D01*
X17952682Y-11626817D02*
X17952682Y-11617293D01*
X17952682Y-11617293D02*
X17962206Y-11598245D01*
X17962206Y-11598245D02*
X17981253Y-11588722D01*
X17981253Y-11588722D02*
X18009825Y-11588722D01*
X18009825Y-11588722D02*
X18028873Y-11598245D01*
X18105063Y-11798245D02*
X18114587Y-11788722D01*
X18114587Y-11788722D02*
X18133634Y-11760150D01*
X18133634Y-11760150D02*
X18143158Y-11741103D01*
X18143158Y-11741103D02*
X18152682Y-11712531D01*
X18152682Y-11712531D02*
X18162206Y-11664912D01*
X18162206Y-11664912D02*
X18162206Y-11626817D01*
X18162206Y-11626817D02*
X18152682Y-11579198D01*
X18152682Y-11579198D02*
X18143158Y-11550626D01*
X18143158Y-11550626D02*
X18133634Y-11531579D01*
X18133634Y-11531579D02*
X18114587Y-11503007D01*
X18114587Y-11503007D02*
X18105063Y-11493483D01*
D13*
X13330000Y-11894571D02*
G75*
G03*
X13330000Y-11894571I-25000J0D01*
G01*
D11*
X13628872Y-11786055D02*
X13647920Y-11786055D01*
X13647920Y-11786055D02*
X13666967Y-11795579D01*
X13666967Y-11795579D02*
X13676491Y-11805103D01*
X13676491Y-11805103D02*
X13686015Y-11824150D01*
X13686015Y-11824150D02*
X13695539Y-11862245D01*
X13695539Y-11862245D02*
X13695539Y-11909864D01*
X13695539Y-11909864D02*
X13686015Y-11947960D01*
X13686015Y-11947960D02*
X13676491Y-11967007D01*
X13676491Y-11967007D02*
X13666967Y-11976531D01*
X13666967Y-11976531D02*
X13647920Y-11986055D01*
X13647920Y-11986055D02*
X13628872Y-11986055D01*
X13628872Y-11986055D02*
X13609824Y-11976531D01*
X13609824Y-11976531D02*
X13600301Y-11967007D01*
X13600301Y-11967007D02*
X13590777Y-11947960D01*
X13590777Y-11947960D02*
X13581253Y-11909864D01*
X13581253Y-11909864D02*
X13581253Y-11862245D01*
X13581253Y-11862245D02*
X13590777Y-11824150D01*
X13590777Y-11824150D02*
X13600301Y-11805103D01*
X13600301Y-11805103D02*
X13609824Y-11795579D01*
X13609824Y-11795579D02*
X13628872Y-11786055D01*
X13781253Y-11967007D02*
X13790777Y-11976531D01*
X13790777Y-11976531D02*
X13781253Y-11986055D01*
X13781253Y-11986055D02*
X13771729Y-11976531D01*
X13771729Y-11976531D02*
X13781253Y-11967007D01*
X13781253Y-11967007D02*
X13781253Y-11986055D01*
X13971729Y-11786055D02*
X13876491Y-11786055D01*
X13876491Y-11786055D02*
X13866967Y-11881293D01*
X13866967Y-11881293D02*
X13876491Y-11871769D01*
X13876491Y-11871769D02*
X13895539Y-11862245D01*
X13895539Y-11862245D02*
X13943158Y-11862245D01*
X13943158Y-11862245D02*
X13962205Y-11871769D01*
X13962205Y-11871769D02*
X13971729Y-11881293D01*
X13971729Y-11881293D02*
X13981253Y-11900341D01*
X13981253Y-11900341D02*
X13981253Y-11947960D01*
X13981253Y-11947960D02*
X13971729Y-11967007D01*
X13971729Y-11967007D02*
X13962205Y-11976531D01*
X13962205Y-11976531D02*
X13943158Y-11986055D01*
X13943158Y-11986055D02*
X13895539Y-11986055D01*
X13895539Y-11986055D02*
X13876491Y-11976531D01*
X13876491Y-11976531D02*
X13866967Y-11967007D01*
X14105062Y-11786055D02*
X14124110Y-11786055D01*
X14124110Y-11786055D02*
X14143158Y-11795579D01*
X14143158Y-11795579D02*
X14152682Y-11805103D01*
X14152682Y-11805103D02*
X14162205Y-11824150D01*
X14162205Y-11824150D02*
X14171729Y-11862245D01*
X14171729Y-11862245D02*
X14171729Y-11909864D01*
X14171729Y-11909864D02*
X14162205Y-11947960D01*
X14162205Y-11947960D02*
X14152682Y-11967007D01*
X14152682Y-11967007D02*
X14143158Y-11976531D01*
X14143158Y-11976531D02*
X14124110Y-11986055D01*
X14124110Y-11986055D02*
X14105062Y-11986055D01*
X14105062Y-11986055D02*
X14086015Y-11976531D01*
X14086015Y-11976531D02*
X14076491Y-11967007D01*
X14076491Y-11967007D02*
X14066967Y-11947960D01*
X14066967Y-11947960D02*
X14057443Y-11909864D01*
X14057443Y-11909864D02*
X14057443Y-11862245D01*
X14057443Y-11862245D02*
X14066967Y-11824150D01*
X14066967Y-11824150D02*
X14076491Y-11805103D01*
X14076491Y-11805103D02*
X14086015Y-11795579D01*
X14086015Y-11795579D02*
X14105062Y-11786055D01*
X14295539Y-11786055D02*
X14314586Y-11786055D01*
X14314586Y-11786055D02*
X14333634Y-11795579D01*
X14333634Y-11795579D02*
X14343158Y-11805103D01*
X14343158Y-11805103D02*
X14352682Y-11824150D01*
X14352682Y-11824150D02*
X14362205Y-11862245D01*
X14362205Y-11862245D02*
X14362205Y-11909864D01*
X14362205Y-11909864D02*
X14352682Y-11947960D01*
X14352682Y-11947960D02*
X14343158Y-11967007D01*
X14343158Y-11967007D02*
X14333634Y-11976531D01*
X14333634Y-11976531D02*
X14314586Y-11986055D01*
X14314586Y-11986055D02*
X14295539Y-11986055D01*
X14295539Y-11986055D02*
X14276491Y-11976531D01*
X14276491Y-11976531D02*
X14266967Y-11967007D01*
X14266967Y-11967007D02*
X14257443Y-11947960D01*
X14257443Y-11947960D02*
X14247920Y-11909864D01*
X14247920Y-11909864D02*
X14247920Y-11862245D01*
X14247920Y-11862245D02*
X14257443Y-11824150D01*
X14257443Y-11824150D02*
X14266967Y-11805103D01*
X14266967Y-11805103D02*
X14276491Y-11795579D01*
X14276491Y-11795579D02*
X14295539Y-11786055D01*
X14447920Y-11986055D02*
X14447920Y-11852722D01*
X14447920Y-11871769D02*
X14457443Y-11862245D01*
X14457443Y-11862245D02*
X14476491Y-11852722D01*
X14476491Y-11852722D02*
X14505063Y-11852722D01*
X14505063Y-11852722D02*
X14524110Y-11862245D01*
X14524110Y-11862245D02*
X14533634Y-11881293D01*
X14533634Y-11881293D02*
X14533634Y-11986055D01*
X14533634Y-11881293D02*
X14543158Y-11862245D01*
X14543158Y-11862245D02*
X14562205Y-11852722D01*
X14562205Y-11852722D02*
X14590777Y-11852722D01*
X14590777Y-11852722D02*
X14609824Y-11862245D01*
X14609824Y-11862245D02*
X14619348Y-11881293D01*
X14619348Y-11881293D02*
X14619348Y-11986055D01*
X14714586Y-11986055D02*
X14714586Y-11852722D01*
X14714586Y-11871769D02*
X14724110Y-11862245D01*
X14724110Y-11862245D02*
X14743158Y-11852722D01*
X14743158Y-11852722D02*
X14771729Y-11852722D01*
X14771729Y-11852722D02*
X14790777Y-11862245D01*
X14790777Y-11862245D02*
X14800301Y-11881293D01*
X14800301Y-11881293D02*
X14800301Y-11986055D01*
X14800301Y-11881293D02*
X14809824Y-11862245D01*
X14809824Y-11862245D02*
X14828872Y-11852722D01*
X14828872Y-11852722D02*
X14857443Y-11852722D01*
X14857443Y-11852722D02*
X14876491Y-11862245D01*
X14876491Y-11862245D02*
X14886015Y-11881293D01*
X14886015Y-11881293D02*
X14886015Y-11986055D01*
X15276491Y-11776531D02*
X15105063Y-12033674D01*
X15533634Y-11786055D02*
X15552682Y-11786055D01*
X15552682Y-11786055D02*
X15571729Y-11795579D01*
X15571729Y-11795579D02*
X15581253Y-11805103D01*
X15581253Y-11805103D02*
X15590777Y-11824150D01*
X15590777Y-11824150D02*
X15600301Y-11862245D01*
X15600301Y-11862245D02*
X15600301Y-11909864D01*
X15600301Y-11909864D02*
X15590777Y-11947960D01*
X15590777Y-11947960D02*
X15581253Y-11967007D01*
X15581253Y-11967007D02*
X15571729Y-11976531D01*
X15571729Y-11976531D02*
X15552682Y-11986055D01*
X15552682Y-11986055D02*
X15533634Y-11986055D01*
X15533634Y-11986055D02*
X15514586Y-11976531D01*
X15514586Y-11976531D02*
X15505063Y-11967007D01*
X15505063Y-11967007D02*
X15495539Y-11947960D01*
X15495539Y-11947960D02*
X15486015Y-11909864D01*
X15486015Y-11909864D02*
X15486015Y-11862245D01*
X15486015Y-11862245D02*
X15495539Y-11824150D01*
X15495539Y-11824150D02*
X15505063Y-11805103D01*
X15505063Y-11805103D02*
X15514586Y-11795579D01*
X15514586Y-11795579D02*
X15533634Y-11786055D01*
X15686015Y-11967007D02*
X15695539Y-11976531D01*
X15695539Y-11976531D02*
X15686015Y-11986055D01*
X15686015Y-11986055D02*
X15676491Y-11976531D01*
X15676491Y-11976531D02*
X15686015Y-11967007D01*
X15686015Y-11967007D02*
X15686015Y-11986055D01*
X15819348Y-11786055D02*
X15838396Y-11786055D01*
X15838396Y-11786055D02*
X15857444Y-11795579D01*
X15857444Y-11795579D02*
X15866967Y-11805103D01*
X15866967Y-11805103D02*
X15876491Y-11824150D01*
X15876491Y-11824150D02*
X15886015Y-11862245D01*
X15886015Y-11862245D02*
X15886015Y-11909864D01*
X15886015Y-11909864D02*
X15876491Y-11947960D01*
X15876491Y-11947960D02*
X15866967Y-11967007D01*
X15866967Y-11967007D02*
X15857444Y-11976531D01*
X15857444Y-11976531D02*
X15838396Y-11986055D01*
X15838396Y-11986055D02*
X15819348Y-11986055D01*
X15819348Y-11986055D02*
X15800301Y-11976531D01*
X15800301Y-11976531D02*
X15790777Y-11967007D01*
X15790777Y-11967007D02*
X15781253Y-11947960D01*
X15781253Y-11947960D02*
X15771729Y-11909864D01*
X15771729Y-11909864D02*
X15771729Y-11862245D01*
X15771729Y-11862245D02*
X15781253Y-11824150D01*
X15781253Y-11824150D02*
X15790777Y-11805103D01*
X15790777Y-11805103D02*
X15800301Y-11795579D01*
X15800301Y-11795579D02*
X15819348Y-11786055D01*
X16076491Y-11986055D02*
X15962206Y-11986055D01*
X16019348Y-11986055D02*
X16019348Y-11786055D01*
X16019348Y-11786055D02*
X16000301Y-11814626D01*
X16000301Y-11814626D02*
X15981253Y-11833674D01*
X15981253Y-11833674D02*
X15962206Y-11843198D01*
X16171729Y-11986055D02*
X16209825Y-11986055D01*
X16209825Y-11986055D02*
X16228872Y-11976531D01*
X16228872Y-11976531D02*
X16238396Y-11967007D01*
X16238396Y-11967007D02*
X16257444Y-11938436D01*
X16257444Y-11938436D02*
X16266967Y-11900341D01*
X16266967Y-11900341D02*
X16266967Y-11824150D01*
X16266967Y-11824150D02*
X16257444Y-11805103D01*
X16257444Y-11805103D02*
X16247920Y-11795579D01*
X16247920Y-11795579D02*
X16228872Y-11786055D01*
X16228872Y-11786055D02*
X16190777Y-11786055D01*
X16190777Y-11786055D02*
X16171729Y-11795579D01*
X16171729Y-11795579D02*
X16162206Y-11805103D01*
X16162206Y-11805103D02*
X16152682Y-11824150D01*
X16152682Y-11824150D02*
X16152682Y-11871769D01*
X16152682Y-11871769D02*
X16162206Y-11890817D01*
X16162206Y-11890817D02*
X16171729Y-11900341D01*
X16171729Y-11900341D02*
X16190777Y-11909864D01*
X16190777Y-11909864D02*
X16228872Y-11909864D01*
X16228872Y-11909864D02*
X16247920Y-11900341D01*
X16247920Y-11900341D02*
X16257444Y-11890817D01*
X16257444Y-11890817D02*
X16266967Y-11871769D01*
X16333634Y-11786055D02*
X16466967Y-11786055D01*
X16466967Y-11786055D02*
X16381253Y-11986055D01*
X16533634Y-11786055D02*
X16533634Y-11824150D01*
X16609825Y-11786055D02*
X16609825Y-11824150D01*
X16905063Y-12062245D02*
X16895539Y-12052722D01*
X16895539Y-12052722D02*
X16876491Y-12024150D01*
X16876491Y-12024150D02*
X16866968Y-12005103D01*
X16866968Y-12005103D02*
X16857444Y-11976531D01*
X16857444Y-11976531D02*
X16847920Y-11928912D01*
X16847920Y-11928912D02*
X16847920Y-11890817D01*
X16847920Y-11890817D02*
X16857444Y-11843198D01*
X16857444Y-11843198D02*
X16866968Y-11814626D01*
X16866968Y-11814626D02*
X16876491Y-11795579D01*
X16876491Y-11795579D02*
X16895539Y-11767007D01*
X16895539Y-11767007D02*
X16905063Y-11757483D01*
X17086015Y-11986055D02*
X16971730Y-11986055D01*
X17028872Y-11986055D02*
X17028872Y-11786055D01*
X17028872Y-11786055D02*
X17009825Y-11814626D01*
X17009825Y-11814626D02*
X16990777Y-11833674D01*
X16990777Y-11833674D02*
X16971730Y-11843198D01*
X17162206Y-11805103D02*
X17171730Y-11795579D01*
X17171730Y-11795579D02*
X17190777Y-11786055D01*
X17190777Y-11786055D02*
X17238396Y-11786055D01*
X17238396Y-11786055D02*
X17257444Y-11795579D01*
X17257444Y-11795579D02*
X17266968Y-11805103D01*
X17266968Y-11805103D02*
X17276491Y-11824150D01*
X17276491Y-11824150D02*
X17276491Y-11843198D01*
X17276491Y-11843198D02*
X17266968Y-11871769D01*
X17266968Y-11871769D02*
X17152682Y-11986055D01*
X17152682Y-11986055D02*
X17276491Y-11986055D01*
X17514587Y-11986055D02*
X17514587Y-11786055D01*
X17600301Y-11986055D02*
X17600301Y-11881293D01*
X17600301Y-11881293D02*
X17590777Y-11862245D01*
X17590777Y-11862245D02*
X17571730Y-11852722D01*
X17571730Y-11852722D02*
X17543158Y-11852722D01*
X17543158Y-11852722D02*
X17524111Y-11862245D01*
X17524111Y-11862245D02*
X17514587Y-11871769D01*
X17724111Y-11986055D02*
X17705063Y-11976531D01*
X17705063Y-11976531D02*
X17695539Y-11967007D01*
X17695539Y-11967007D02*
X17686015Y-11947960D01*
X17686015Y-11947960D02*
X17686015Y-11890817D01*
X17686015Y-11890817D02*
X17695539Y-11871769D01*
X17695539Y-11871769D02*
X17705063Y-11862245D01*
X17705063Y-11862245D02*
X17724111Y-11852722D01*
X17724111Y-11852722D02*
X17752682Y-11852722D01*
X17752682Y-11852722D02*
X17771730Y-11862245D01*
X17771730Y-11862245D02*
X17781253Y-11871769D01*
X17781253Y-11871769D02*
X17790777Y-11890817D01*
X17790777Y-11890817D02*
X17790777Y-11947960D01*
X17790777Y-11947960D02*
X17781253Y-11967007D01*
X17781253Y-11967007D02*
X17771730Y-11976531D01*
X17771730Y-11976531D02*
X17752682Y-11986055D01*
X17752682Y-11986055D02*
X17724111Y-11986055D01*
X17905063Y-11986055D02*
X17886015Y-11976531D01*
X17886015Y-11976531D02*
X17876492Y-11957483D01*
X17876492Y-11957483D02*
X17876492Y-11786055D01*
X18057444Y-11976531D02*
X18038396Y-11986055D01*
X18038396Y-11986055D02*
X18000301Y-11986055D01*
X18000301Y-11986055D02*
X17981253Y-11976531D01*
X17981253Y-11976531D02*
X17971730Y-11957483D01*
X17971730Y-11957483D02*
X17971730Y-11881293D01*
X17971730Y-11881293D02*
X17981253Y-11862245D01*
X17981253Y-11862245D02*
X18000301Y-11852722D01*
X18000301Y-11852722D02*
X18038396Y-11852722D01*
X18038396Y-11852722D02*
X18057444Y-11862245D01*
X18057444Y-11862245D02*
X18066968Y-11881293D01*
X18066968Y-11881293D02*
X18066968Y-11900341D01*
X18066968Y-11900341D02*
X17971730Y-11919388D01*
X18143158Y-11976531D02*
X18162206Y-11986055D01*
X18162206Y-11986055D02*
X18200301Y-11986055D01*
X18200301Y-11986055D02*
X18219349Y-11976531D01*
X18219349Y-11976531D02*
X18228873Y-11957483D01*
X18228873Y-11957483D02*
X18228873Y-11947960D01*
X18228873Y-11947960D02*
X18219349Y-11928912D01*
X18219349Y-11928912D02*
X18200301Y-11919388D01*
X18200301Y-11919388D02*
X18171730Y-11919388D01*
X18171730Y-11919388D02*
X18152682Y-11909864D01*
X18152682Y-11909864D02*
X18143158Y-11890817D01*
X18143158Y-11890817D02*
X18143158Y-11881293D01*
X18143158Y-11881293D02*
X18152682Y-11862245D01*
X18152682Y-11862245D02*
X18171730Y-11852722D01*
X18171730Y-11852722D02*
X18200301Y-11852722D01*
X18200301Y-11852722D02*
X18219349Y-11862245D01*
X18295539Y-12062245D02*
X18305063Y-12052722D01*
X18305063Y-12052722D02*
X18324111Y-12024150D01*
X18324111Y-12024150D02*
X18333634Y-12005103D01*
X18333634Y-12005103D02*
X18343158Y-11976531D01*
X18343158Y-11976531D02*
X18352682Y-11928912D01*
X18352682Y-11928912D02*
X18352682Y-11890817D01*
X18352682Y-11890817D02*
X18343158Y-11843198D01*
X18343158Y-11843198D02*
X18333634Y-11814626D01*
X18333634Y-11814626D02*
X18324111Y-11795579D01*
X18324111Y-11795579D02*
X18305063Y-11767007D01*
X18305063Y-11767007D02*
X18295539Y-11757483D01*
D14*
X13255070Y-12083641D02*
X13255070Y-12233501D01*
X13180140Y-12158571D02*
X13330000Y-12158571D01*
D11*
X13695539Y-12250055D02*
X13581253Y-12250055D01*
X13638396Y-12250055D02*
X13638396Y-12050055D01*
X13638396Y-12050055D02*
X13619348Y-12078626D01*
X13619348Y-12078626D02*
X13600301Y-12097674D01*
X13600301Y-12097674D02*
X13581253Y-12107198D01*
X13781253Y-12231007D02*
X13790777Y-12240531D01*
X13790777Y-12240531D02*
X13781253Y-12250055D01*
X13781253Y-12250055D02*
X13771729Y-12240531D01*
X13771729Y-12240531D02*
X13781253Y-12231007D01*
X13781253Y-12231007D02*
X13781253Y-12250055D01*
X13962205Y-12116722D02*
X13962205Y-12250055D01*
X13914586Y-12040531D02*
X13866967Y-12183388D01*
X13866967Y-12183388D02*
X13990777Y-12183388D01*
X14076491Y-12250055D02*
X14114586Y-12250055D01*
X14114586Y-12250055D02*
X14133634Y-12240531D01*
X14133634Y-12240531D02*
X14143158Y-12231007D01*
X14143158Y-12231007D02*
X14162205Y-12202436D01*
X14162205Y-12202436D02*
X14171729Y-12164341D01*
X14171729Y-12164341D02*
X14171729Y-12088150D01*
X14171729Y-12088150D02*
X14162205Y-12069103D01*
X14162205Y-12069103D02*
X14152682Y-12059579D01*
X14152682Y-12059579D02*
X14133634Y-12050055D01*
X14133634Y-12050055D02*
X14095539Y-12050055D01*
X14095539Y-12050055D02*
X14076491Y-12059579D01*
X14076491Y-12059579D02*
X14066967Y-12069103D01*
X14066967Y-12069103D02*
X14057443Y-12088150D01*
X14057443Y-12088150D02*
X14057443Y-12135769D01*
X14057443Y-12135769D02*
X14066967Y-12154817D01*
X14066967Y-12154817D02*
X14076491Y-12164341D01*
X14076491Y-12164341D02*
X14095539Y-12173864D01*
X14095539Y-12173864D02*
X14133634Y-12173864D01*
X14133634Y-12173864D02*
X14152682Y-12164341D01*
X14152682Y-12164341D02*
X14162205Y-12154817D01*
X14162205Y-12154817D02*
X14171729Y-12135769D01*
X14266967Y-12250055D02*
X14305062Y-12250055D01*
X14305062Y-12250055D02*
X14324110Y-12240531D01*
X14324110Y-12240531D02*
X14333634Y-12231007D01*
X14333634Y-12231007D02*
X14352682Y-12202436D01*
X14352682Y-12202436D02*
X14362205Y-12164341D01*
X14362205Y-12164341D02*
X14362205Y-12088150D01*
X14362205Y-12088150D02*
X14352682Y-12069103D01*
X14352682Y-12069103D02*
X14343158Y-12059579D01*
X14343158Y-12059579D02*
X14324110Y-12050055D01*
X14324110Y-12050055D02*
X14286015Y-12050055D01*
X14286015Y-12050055D02*
X14266967Y-12059579D01*
X14266967Y-12059579D02*
X14257443Y-12069103D01*
X14257443Y-12069103D02*
X14247920Y-12088150D01*
X14247920Y-12088150D02*
X14247920Y-12135769D01*
X14247920Y-12135769D02*
X14257443Y-12154817D01*
X14257443Y-12154817D02*
X14266967Y-12164341D01*
X14266967Y-12164341D02*
X14286015Y-12173864D01*
X14286015Y-12173864D02*
X14324110Y-12173864D01*
X14324110Y-12173864D02*
X14343158Y-12164341D01*
X14343158Y-12164341D02*
X14352682Y-12154817D01*
X14352682Y-12154817D02*
X14362205Y-12135769D01*
X14447920Y-12250055D02*
X14447920Y-12116722D01*
X14447920Y-12135769D02*
X14457443Y-12126245D01*
X14457443Y-12126245D02*
X14476491Y-12116722D01*
X14476491Y-12116722D02*
X14505063Y-12116722D01*
X14505063Y-12116722D02*
X14524110Y-12126245D01*
X14524110Y-12126245D02*
X14533634Y-12145293D01*
X14533634Y-12145293D02*
X14533634Y-12250055D01*
X14533634Y-12145293D02*
X14543158Y-12126245D01*
X14543158Y-12126245D02*
X14562205Y-12116722D01*
X14562205Y-12116722D02*
X14590777Y-12116722D01*
X14590777Y-12116722D02*
X14609824Y-12126245D01*
X14609824Y-12126245D02*
X14619348Y-12145293D01*
X14619348Y-12145293D02*
X14619348Y-12250055D01*
X14714586Y-12250055D02*
X14714586Y-12116722D01*
X14714586Y-12135769D02*
X14724110Y-12126245D01*
X14724110Y-12126245D02*
X14743158Y-12116722D01*
X14743158Y-12116722D02*
X14771729Y-12116722D01*
X14771729Y-12116722D02*
X14790777Y-12126245D01*
X14790777Y-12126245D02*
X14800301Y-12145293D01*
X14800301Y-12145293D02*
X14800301Y-12250055D01*
X14800301Y-12145293D02*
X14809824Y-12126245D01*
X14809824Y-12126245D02*
X14828872Y-12116722D01*
X14828872Y-12116722D02*
X14857443Y-12116722D01*
X14857443Y-12116722D02*
X14876491Y-12126245D01*
X14876491Y-12126245D02*
X14886015Y-12145293D01*
X14886015Y-12145293D02*
X14886015Y-12250055D01*
X15276491Y-12040531D02*
X15105063Y-12297674D01*
X15533634Y-12050055D02*
X15552682Y-12050055D01*
X15552682Y-12050055D02*
X15571729Y-12059579D01*
X15571729Y-12059579D02*
X15581253Y-12069103D01*
X15581253Y-12069103D02*
X15590777Y-12088150D01*
X15590777Y-12088150D02*
X15600301Y-12126245D01*
X15600301Y-12126245D02*
X15600301Y-12173864D01*
X15600301Y-12173864D02*
X15590777Y-12211960D01*
X15590777Y-12211960D02*
X15581253Y-12231007D01*
X15581253Y-12231007D02*
X15571729Y-12240531D01*
X15571729Y-12240531D02*
X15552682Y-12250055D01*
X15552682Y-12250055D02*
X15533634Y-12250055D01*
X15533634Y-12250055D02*
X15514586Y-12240531D01*
X15514586Y-12240531D02*
X15505063Y-12231007D01*
X15505063Y-12231007D02*
X15495539Y-12211960D01*
X15495539Y-12211960D02*
X15486015Y-12173864D01*
X15486015Y-12173864D02*
X15486015Y-12126245D01*
X15486015Y-12126245D02*
X15495539Y-12088150D01*
X15495539Y-12088150D02*
X15505063Y-12069103D01*
X15505063Y-12069103D02*
X15514586Y-12059579D01*
X15514586Y-12059579D02*
X15533634Y-12050055D01*
X15686015Y-12231007D02*
X15695539Y-12240531D01*
X15695539Y-12240531D02*
X15686015Y-12250055D01*
X15686015Y-12250055D02*
X15676491Y-12240531D01*
X15676491Y-12240531D02*
X15686015Y-12231007D01*
X15686015Y-12231007D02*
X15686015Y-12250055D01*
X15819348Y-12050055D02*
X15838396Y-12050055D01*
X15838396Y-12050055D02*
X15857444Y-12059579D01*
X15857444Y-12059579D02*
X15866967Y-12069103D01*
X15866967Y-12069103D02*
X15876491Y-12088150D01*
X15876491Y-12088150D02*
X15886015Y-12126245D01*
X15886015Y-12126245D02*
X15886015Y-12173864D01*
X15886015Y-12173864D02*
X15876491Y-12211960D01*
X15876491Y-12211960D02*
X15866967Y-12231007D01*
X15866967Y-12231007D02*
X15857444Y-12240531D01*
X15857444Y-12240531D02*
X15838396Y-12250055D01*
X15838396Y-12250055D02*
X15819348Y-12250055D01*
X15819348Y-12250055D02*
X15800301Y-12240531D01*
X15800301Y-12240531D02*
X15790777Y-12231007D01*
X15790777Y-12231007D02*
X15781253Y-12211960D01*
X15781253Y-12211960D02*
X15771729Y-12173864D01*
X15771729Y-12173864D02*
X15771729Y-12126245D01*
X15771729Y-12126245D02*
X15781253Y-12088150D01*
X15781253Y-12088150D02*
X15790777Y-12069103D01*
X15790777Y-12069103D02*
X15800301Y-12059579D01*
X15800301Y-12059579D02*
X15819348Y-12050055D01*
X16066967Y-12050055D02*
X15971729Y-12050055D01*
X15971729Y-12050055D02*
X15962206Y-12145293D01*
X15962206Y-12145293D02*
X15971729Y-12135769D01*
X15971729Y-12135769D02*
X15990777Y-12126245D01*
X15990777Y-12126245D02*
X16038396Y-12126245D01*
X16038396Y-12126245D02*
X16057444Y-12135769D01*
X16057444Y-12135769D02*
X16066967Y-12145293D01*
X16066967Y-12145293D02*
X16076491Y-12164341D01*
X16076491Y-12164341D02*
X16076491Y-12211960D01*
X16076491Y-12211960D02*
X16066967Y-12231007D01*
X16066967Y-12231007D02*
X16057444Y-12240531D01*
X16057444Y-12240531D02*
X16038396Y-12250055D01*
X16038396Y-12250055D02*
X15990777Y-12250055D01*
X15990777Y-12250055D02*
X15971729Y-12240531D01*
X15971729Y-12240531D02*
X15962206Y-12231007D01*
X16171729Y-12250055D02*
X16209825Y-12250055D01*
X16209825Y-12250055D02*
X16228872Y-12240531D01*
X16228872Y-12240531D02*
X16238396Y-12231007D01*
X16238396Y-12231007D02*
X16257444Y-12202436D01*
X16257444Y-12202436D02*
X16266967Y-12164341D01*
X16266967Y-12164341D02*
X16266967Y-12088150D01*
X16266967Y-12088150D02*
X16257444Y-12069103D01*
X16257444Y-12069103D02*
X16247920Y-12059579D01*
X16247920Y-12059579D02*
X16228872Y-12050055D01*
X16228872Y-12050055D02*
X16190777Y-12050055D01*
X16190777Y-12050055D02*
X16171729Y-12059579D01*
X16171729Y-12059579D02*
X16162206Y-12069103D01*
X16162206Y-12069103D02*
X16152682Y-12088150D01*
X16152682Y-12088150D02*
X16152682Y-12135769D01*
X16152682Y-12135769D02*
X16162206Y-12154817D01*
X16162206Y-12154817D02*
X16171729Y-12164341D01*
X16171729Y-12164341D02*
X16190777Y-12173864D01*
X16190777Y-12173864D02*
X16228872Y-12173864D01*
X16228872Y-12173864D02*
X16247920Y-12164341D01*
X16247920Y-12164341D02*
X16257444Y-12154817D01*
X16257444Y-12154817D02*
X16266967Y-12135769D01*
X16390777Y-12050055D02*
X16409825Y-12050055D01*
X16409825Y-12050055D02*
X16428872Y-12059579D01*
X16428872Y-12059579D02*
X16438396Y-12069103D01*
X16438396Y-12069103D02*
X16447920Y-12088150D01*
X16447920Y-12088150D02*
X16457444Y-12126245D01*
X16457444Y-12126245D02*
X16457444Y-12173864D01*
X16457444Y-12173864D02*
X16447920Y-12211960D01*
X16447920Y-12211960D02*
X16438396Y-12231007D01*
X16438396Y-12231007D02*
X16428872Y-12240531D01*
X16428872Y-12240531D02*
X16409825Y-12250055D01*
X16409825Y-12250055D02*
X16390777Y-12250055D01*
X16390777Y-12250055D02*
X16371729Y-12240531D01*
X16371729Y-12240531D02*
X16362206Y-12231007D01*
X16362206Y-12231007D02*
X16352682Y-12211960D01*
X16352682Y-12211960D02*
X16343158Y-12173864D01*
X16343158Y-12173864D02*
X16343158Y-12126245D01*
X16343158Y-12126245D02*
X16352682Y-12088150D01*
X16352682Y-12088150D02*
X16362206Y-12069103D01*
X16362206Y-12069103D02*
X16371729Y-12059579D01*
X16371729Y-12059579D02*
X16390777Y-12050055D01*
X16533634Y-12050055D02*
X16533634Y-12088150D01*
X16609825Y-12050055D02*
X16609825Y-12088150D01*
X16905063Y-12326245D02*
X16895539Y-12316722D01*
X16895539Y-12316722D02*
X16876491Y-12288150D01*
X16876491Y-12288150D02*
X16866968Y-12269103D01*
X16866968Y-12269103D02*
X16857444Y-12240531D01*
X16857444Y-12240531D02*
X16847920Y-12192912D01*
X16847920Y-12192912D02*
X16847920Y-12154817D01*
X16847920Y-12154817D02*
X16857444Y-12107198D01*
X16857444Y-12107198D02*
X16866968Y-12078626D01*
X16866968Y-12078626D02*
X16876491Y-12059579D01*
X16876491Y-12059579D02*
X16895539Y-12031007D01*
X16895539Y-12031007D02*
X16905063Y-12021483D01*
X17066968Y-12116722D02*
X17066968Y-12250055D01*
X17019349Y-12040531D02*
X16971730Y-12183388D01*
X16971730Y-12183388D02*
X17095539Y-12183388D01*
X17324111Y-12250055D02*
X17324111Y-12050055D01*
X17409825Y-12250055D02*
X17409825Y-12145293D01*
X17409825Y-12145293D02*
X17400301Y-12126245D01*
X17400301Y-12126245D02*
X17381253Y-12116722D01*
X17381253Y-12116722D02*
X17352682Y-12116722D01*
X17352682Y-12116722D02*
X17333634Y-12126245D01*
X17333634Y-12126245D02*
X17324111Y-12135769D01*
X17533634Y-12250055D02*
X17514587Y-12240531D01*
X17514587Y-12240531D02*
X17505063Y-12231007D01*
X17505063Y-12231007D02*
X17495539Y-12211960D01*
X17495539Y-12211960D02*
X17495539Y-12154817D01*
X17495539Y-12154817D02*
X17505063Y-12135769D01*
X17505063Y-12135769D02*
X17514587Y-12126245D01*
X17514587Y-12126245D02*
X17533634Y-12116722D01*
X17533634Y-12116722D02*
X17562206Y-12116722D01*
X17562206Y-12116722D02*
X17581253Y-12126245D01*
X17581253Y-12126245D02*
X17590777Y-12135769D01*
X17590777Y-12135769D02*
X17600301Y-12154817D01*
X17600301Y-12154817D02*
X17600301Y-12211960D01*
X17600301Y-12211960D02*
X17590777Y-12231007D01*
X17590777Y-12231007D02*
X17581253Y-12240531D01*
X17581253Y-12240531D02*
X17562206Y-12250055D01*
X17562206Y-12250055D02*
X17533634Y-12250055D01*
X17714587Y-12250055D02*
X17695539Y-12240531D01*
X17695539Y-12240531D02*
X17686015Y-12221483D01*
X17686015Y-12221483D02*
X17686015Y-12050055D01*
X17866968Y-12240531D02*
X17847920Y-12250055D01*
X17847920Y-12250055D02*
X17809825Y-12250055D01*
X17809825Y-12250055D02*
X17790777Y-12240531D01*
X17790777Y-12240531D02*
X17781253Y-12221483D01*
X17781253Y-12221483D02*
X17781253Y-12145293D01*
X17781253Y-12145293D02*
X17790777Y-12126245D01*
X17790777Y-12126245D02*
X17809825Y-12116722D01*
X17809825Y-12116722D02*
X17847920Y-12116722D01*
X17847920Y-12116722D02*
X17866968Y-12126245D01*
X17866968Y-12126245D02*
X17876492Y-12145293D01*
X17876492Y-12145293D02*
X17876492Y-12164341D01*
X17876492Y-12164341D02*
X17781253Y-12183388D01*
X17952682Y-12240531D02*
X17971730Y-12250055D01*
X17971730Y-12250055D02*
X18009825Y-12250055D01*
X18009825Y-12250055D02*
X18028873Y-12240531D01*
X18028873Y-12240531D02*
X18038396Y-12221483D01*
X18038396Y-12221483D02*
X18038396Y-12211960D01*
X18038396Y-12211960D02*
X18028873Y-12192912D01*
X18028873Y-12192912D02*
X18009825Y-12183388D01*
X18009825Y-12183388D02*
X17981253Y-12183388D01*
X17981253Y-12183388D02*
X17962206Y-12173864D01*
X17962206Y-12173864D02*
X17952682Y-12154817D01*
X17952682Y-12154817D02*
X17952682Y-12145293D01*
X17952682Y-12145293D02*
X17962206Y-12126245D01*
X17962206Y-12126245D02*
X17981253Y-12116722D01*
X17981253Y-12116722D02*
X18009825Y-12116722D01*
X18009825Y-12116722D02*
X18028873Y-12126245D01*
X18105063Y-12326245D02*
X18114587Y-12316722D01*
X18114587Y-12316722D02*
X18133634Y-12288150D01*
X18133634Y-12288150D02*
X18143158Y-12269103D01*
X18143158Y-12269103D02*
X18152682Y-12240531D01*
X18152682Y-12240531D02*
X18162206Y-12192912D01*
X18162206Y-12192912D02*
X18162206Y-12154817D01*
X18162206Y-12154817D02*
X18152682Y-12107198D01*
X18152682Y-12107198D02*
X18143158Y-12078626D01*
X18143158Y-12078626D02*
X18133634Y-12059579D01*
X18133634Y-12059579D02*
X18114587Y-12031007D01*
X18114587Y-12031007D02*
X18105063Y-12021483D01*
M02*
