M48
; DRILL file {KiCad 7.0.5} date Thu Mar  7 22:21:11 2024
; FORMAT={-:-/ absolute / metric / decimal}
; #@! TF.CreationDate,2024-03-07T22:21:11-05:00
; #@! TF.GenerationSoftware,Kicad,Pcbnew,7.0.5
; #@! TF.FileFunction,Plated,1,2,PTH
FMAT,2
METRIC
; #@! TA.AperFunction,Plated,PTH,ViaDrill
T1C0.400
; #@! TA.AperFunction,Plated,PTH,ComponentDrill
T2C0.500
; #@! TA.AperFunction,Plated,PTH,ComponentDrill
T3C1.499
%
G90
G05
T1
X138.684Y-94.234
X142.9Y-106.883
X144.552Y-103.322
X144.625Y-97.25
X145.288Y-98.355
X146.923Y-97.495
T2
X136.55Y-96.52
X136.55Y-97.77
X136.601Y-102.667
X136.601Y-103.917
X142.057Y-108.61
X143.307Y-108.61
X147.696Y-93.37
X148.946Y-93.37
X149.149Y-96.591
X149.149Y-97.841
X149.149Y-102.687
X149.149Y-103.937
T3
X139.065Y-102.868
X140.335Y-105.408
X145.415Y-105.408
X146.685Y-102.868
T0
M30
