%TF.GenerationSoftware,KiCad,Pcbnew,7.0.9*%
%TF.CreationDate,2023-12-15T15:14:35-05:00*%
%TF.ProjectId,amoebe_streamline,616d6f65-6265-45f7-9374-7265616d6c69,rev?*%
%TF.SameCoordinates,Original*%
%TF.FileFunction,Copper,L1,Top*%
%TF.FilePolarity,Positive*%
%FSLAX46Y46*%
G04 Gerber Fmt 4.6, Leading zero omitted, Abs format (unit mm)*
G04 Created by KiCad (PCBNEW 7.0.9) date 2023-12-15 15:14:35*
%MOMM*%
%LPD*%
G01*
G04 APERTURE LIST*
G04 Aperture macros list*
%AMRoundRect*
0 Rectangle with rounded corners*
0 $1 Rounding radius*
0 $2 $3 $4 $5 $6 $7 $8 $9 X,Y pos of 4 corners*
0 Add a 4 corners polygon primitive as box body*
4,1,4,$2,$3,$4,$5,$6,$7,$8,$9,$2,$3,0*
0 Add four circle primitives for the rounded corners*
1,1,$1+$1,$2,$3*
1,1,$1+$1,$4,$5*
1,1,$1+$1,$6,$7*
1,1,$1+$1,$8,$9*
0 Add four rect primitives between the rounded corners*
20,1,$1+$1,$2,$3,$4,$5,0*
20,1,$1+$1,$4,$5,$6,$7,0*
20,1,$1+$1,$6,$7,$8,$9,0*
20,1,$1+$1,$8,$9,$2,$3,0*%
G04 Aperture macros list end*
%TA.AperFunction,ComponentPad*%
%ADD10R,0.850000X0.850000*%
%TD*%
%TA.AperFunction,ComponentPad*%
%ADD11O,0.850000X0.850000*%
%TD*%
%TA.AperFunction,ComponentPad*%
%ADD12C,2.286000*%
%TD*%
%TA.AperFunction,ComponentPad*%
%ADD13RoundRect,0.200000X0.450000X-0.200000X0.450000X0.200000X-0.450000X0.200000X-0.450000X-0.200000X0*%
%TD*%
%TA.AperFunction,ComponentPad*%
%ADD14O,1.300000X0.800000*%
%TD*%
%TA.AperFunction,SMDPad,CuDef*%
%ADD15RoundRect,0.225000X0.375000X-0.225000X0.375000X0.225000X-0.375000X0.225000X-0.375000X-0.225000X0*%
%TD*%
%TA.AperFunction,ComponentPad*%
%ADD16RoundRect,0.200000X-0.450000X0.200000X-0.450000X-0.200000X0.450000X-0.200000X0.450000X0.200000X0*%
%TD*%
%TA.AperFunction,SMDPad,CuDef*%
%ADD17R,1.700000X0.820000*%
%TD*%
%TA.AperFunction,SMDPad,CuDef*%
%ADD18RoundRect,0.205000X0.645000X0.205000X-0.645000X0.205000X-0.645000X-0.205000X0.645000X-0.205000X0*%
%TD*%
%TA.AperFunction,ViaPad*%
%ADD19C,0.800000*%
%TD*%
%TA.AperFunction,Conductor*%
%ADD20C,0.250000*%
%TD*%
G04 APERTURE END LIST*
D10*
%TO.P,J5,1,Pin_1*%
%TO.N,/VSS*%
X139623800Y-108356400D03*
D11*
%TO.P,J5,2,Pin_2*%
%TO.N,/C*%
X138623800Y-108356400D03*
%TD*%
D12*
%TO.P,S1,1*%
%TO.N,/R*%
X146964400Y-102895400D03*
X145694400Y-105435400D03*
%TO.P,S1,2*%
%TO.N,Net-(D1-A)*%
X140614400Y-105435400D03*
X139344400Y-102895400D03*
%TD*%
D13*
%TO.P,J3,1,Pin_1*%
%TO.N,/DOUT*%
X149072600Y-95707200D03*
D14*
%TO.P,J3,2,Pin_2*%
%TO.N,/VDD*%
X149072600Y-94457200D03*
%TD*%
D15*
%TO.P,D1,1,A*%
%TO.N,Net-(D1-A)*%
X143205200Y-106527600D03*
%TO.P,D1,2,K*%
%TO.N,/C*%
X143205200Y-103227600D03*
%TD*%
D16*
%TO.P,J4,1,Pin_1*%
%TO.N,/R*%
X137007600Y-105150600D03*
D14*
%TO.P,J4,2,Pin_2*%
%TO.N,/VSS*%
X137007600Y-106400600D03*
%TD*%
D17*
%TO.P,D2,1,VDD*%
%TO.N,/VDD*%
X145435000Y-94512000D03*
%TO.P,D2,2,DOUT*%
%TO.N,/DOUT*%
X145435000Y-96012000D03*
D18*
%TO.P,D2,3,VSS*%
%TO.N,/VSS*%
X140335000Y-96012000D03*
D17*
%TO.P,D2,4,DIN*%
%TO.N,/DIN*%
X140335000Y-94512000D03*
%TD*%
D13*
%TO.P,J2,1,Pin_1*%
%TO.N,/VSS*%
X149201400Y-106365200D03*
D14*
%TO.P,J2,2,Pin_2*%
%TO.N,/R*%
X149201400Y-105115200D03*
%TD*%
D10*
%TO.P,J6,1,Pin_1*%
%TO.N,/C*%
X138430000Y-92278200D03*
D11*
%TO.P,J6,2,Pin_2*%
%TO.N,/VSS*%
X139430000Y-92278200D03*
%TD*%
D16*
%TO.P,J1,1,Pin_1*%
%TO.N,/VDD*%
X137033000Y-94152400D03*
D14*
%TO.P,J1,2,Pin_2*%
%TO.N,/DIN*%
X137033000Y-95402400D03*
%TD*%
D19*
%TO.N,/C*%
X140182600Y-99009200D03*
%TO.N,/DOUT*%
X141986000Y-97282000D03*
%TO.N,/DIN*%
X138684000Y-94234000D03*
%TD*%
D20*
%TO.N,Net-(D1-A)*%
X142976600Y-106527600D02*
X143205200Y-106527600D01*
X139344400Y-102895400D02*
X142976600Y-106527600D01*
%TO.N,/C*%
X140182600Y-99009200D02*
X140182600Y-100733731D01*
X140182600Y-100733731D02*
X142854269Y-103405400D01*
%TO.N,/VDD*%
X137676400Y-93509000D02*
X145094000Y-93509000D01*
X145094000Y-93509000D02*
X145450400Y-93865400D01*
X145450400Y-93865400D02*
X145450400Y-94525400D01*
X149004400Y-94525400D02*
X149072600Y-94457200D01*
X149072600Y-94457200D02*
X145518600Y-94457200D01*
X137033000Y-94152400D02*
X137676400Y-93509000D01*
X145518600Y-94457200D02*
X145450400Y-94525400D01*
%TO.N,/DOUT*%
X145450400Y-96025400D02*
X148754400Y-96025400D01*
X145450400Y-96025400D02*
X144193800Y-97282000D01*
X148754400Y-96025400D02*
X149072600Y-95707200D01*
X144193800Y-97282000D02*
X141986000Y-97282000D01*
%TO.N,/VSS*%
X148264000Y-107302600D02*
X139700000Y-107302600D01*
X139180000Y-91528200D02*
X137680000Y-91528200D01*
X136032600Y-100343200D02*
X136032600Y-105825600D01*
X137680000Y-91528200D02*
X137680000Y-92107396D01*
X140350400Y-96025400D02*
X136032600Y-100343200D01*
X137909600Y-107302600D02*
X137007600Y-106400600D01*
X139623800Y-108356400D02*
X139623800Y-107378800D01*
X139623800Y-107378800D02*
X139700000Y-107302600D01*
X149201400Y-106365200D02*
X148264000Y-107302600D01*
X139700000Y-107302600D02*
X137909600Y-107302600D01*
X136032600Y-105825600D02*
X136607600Y-106400600D01*
X136607600Y-106400600D02*
X137007600Y-106400600D01*
X137680000Y-92107396D02*
X136032600Y-93754796D01*
X139430000Y-92278200D02*
X139430000Y-91778200D01*
X136032600Y-93754796D02*
X136032600Y-100343200D01*
X139430000Y-91778200D02*
X139180000Y-91528200D01*
%TO.N,/DIN*%
X138392600Y-94525400D02*
X138684000Y-94234000D01*
X137033000Y-95402400D02*
X137433000Y-95402400D01*
X138684000Y-94234000D02*
X138975400Y-94525400D01*
X137433000Y-95402400D02*
X138310000Y-94525400D01*
X138310000Y-94525400D02*
X138392600Y-94525400D01*
X138975400Y-94525400D02*
X140350400Y-94525400D01*
%TO.N,/R*%
X138736334Y-101427400D02*
X139952466Y-101427400D01*
X137499266Y-105150600D02*
X137876400Y-104773466D01*
X149184200Y-105115200D02*
X146964400Y-102895400D01*
X137007600Y-105150600D02*
X137499266Y-105150600D01*
X142527666Y-104002600D02*
X144261600Y-104002600D01*
X149201400Y-105115200D02*
X149184200Y-105115200D01*
X139952466Y-101427400D02*
X142527666Y-104002600D01*
X137876400Y-102287334D02*
X138736334Y-101427400D01*
X137876400Y-104773466D02*
X137876400Y-102287334D01*
X144261600Y-104002600D02*
X145694400Y-105435400D01*
%TD*%
M02*
