%TF.GenerationSoftware,KiCad,Pcbnew,7.0.5*%
%TF.CreationDate,2024-03-07T22:21:16-05:00*%
%TF.ProjectId,amoebe_streamline,616d6f65-6265-45f7-9374-7265616d6c69,rev?*%
%TF.SameCoordinates,Original*%
%TF.FileFunction,Copper,L2,Bot*%
%TF.FilePolarity,Positive*%
%FSLAX46Y46*%
G04 Gerber Fmt 4.6, Leading zero omitted, Abs format (unit mm)*
G04 Created by KiCad (PCBNEW 7.0.5) date 2024-03-07 22:21:16*
%MOMM*%
%LPD*%
G01*
G04 APERTURE LIST*
G04 Aperture macros list*
%AMRoundRect*
0 Rectangle with rounded corners*
0 $1 Rounding radius*
0 $2 $3 $4 $5 $6 $7 $8 $9 X,Y pos of 4 corners*
0 Add a 4 corners polygon primitive as box body*
4,1,4,$2,$3,$4,$5,$6,$7,$8,$9,$2,$3,0*
0 Add four circle primitives for the rounded corners*
1,1,$1+$1,$2,$3*
1,1,$1+$1,$4,$5*
1,1,$1+$1,$6,$7*
1,1,$1+$1,$8,$9*
0 Add four rect primitives between the rounded corners*
20,1,$1+$1,$2,$3,$4,$5,0*
20,1,$1+$1,$4,$5,$6,$7,0*
20,1,$1+$1,$6,$7,$8,$9,0*
20,1,$1+$1,$8,$9,$2,$3,0*%
G04 Aperture macros list end*
%TA.AperFunction,ComponentPad*%
%ADD10O,0.800000X1.300000*%
%TD*%
%TA.AperFunction,ComponentPad*%
%ADD11RoundRect,0.200000X0.200000X0.450000X-0.200000X0.450000X-0.200000X-0.450000X0.200000X-0.450000X0*%
%TD*%
%TA.AperFunction,ComponentPad*%
%ADD12C,2.286000*%
%TD*%
%TA.AperFunction,ComponentPad*%
%ADD13O,1.300000X0.800000*%
%TD*%
%TA.AperFunction,ComponentPad*%
%ADD14RoundRect,0.200000X0.450000X-0.200000X0.450000X0.200000X-0.450000X0.200000X-0.450000X-0.200000X0*%
%TD*%
%TA.AperFunction,ComponentPad*%
%ADD15RoundRect,0.200000X-0.450000X0.200000X-0.450000X-0.200000X0.450000X-0.200000X0.450000X0.200000X0*%
%TD*%
%TA.AperFunction,SMDPad,CuDef*%
%ADD16RoundRect,0.225000X-0.083173X-0.429339X0.339688X-0.275430X0.083173X0.429339X-0.339688X0.275430X0*%
%TD*%
%TA.AperFunction,SMDPad,CuDef*%
%ADD17R,1.700000X0.820000*%
%TD*%
%TA.AperFunction,SMDPad,CuDef*%
%ADD18RoundRect,0.205000X-0.645000X-0.205000X0.645000X-0.205000X0.645000X0.205000X-0.645000X0.205000X0*%
%TD*%
%TA.AperFunction,ViaPad*%
%ADD19C,0.800000*%
%TD*%
%TA.AperFunction,Conductor*%
%ADD20C,0.250000*%
%TD*%
%TA.AperFunction,Conductor*%
%ADD21C,0.500000*%
%TD*%
G04 APERTURE END LIST*
D10*
%TO.P,J5,2,Pin_2*%
%TO.N,/C*%
X142056800Y-108610400D03*
D11*
%TO.P,J5,1,Pin_1*%
%TO.N,/VSS*%
X143306800Y-108610400D03*
%TD*%
D12*
%TO.P,S1,*%
%TO.N,Net-(D1-A)*%
X140334900Y-105407900D03*
%TO.P,S1,1*%
%TO.N,/R*%
X146684900Y-102867900D03*
X145414900Y-105407900D03*
%TO.P,S1,2*%
%TO.N,Net-(D1-A)*%
X139064900Y-102867900D03*
%TD*%
D13*
%TO.P,J3,2,Pin_2*%
%TO.N,/VDD*%
X149148800Y-96590800D03*
D14*
%TO.P,J3,1,Pin_1*%
%TO.N,/DOUT*%
X149148800Y-97840800D03*
%TD*%
D15*
%TO.P,J4,1,Pin_1*%
%TO.N,/R*%
X136601200Y-102666800D03*
D13*
%TO.P,J4,2,Pin_2*%
%TO.N,/VSS*%
X136601200Y-103916800D03*
%TD*%
D14*
%TO.P,J2,1,Pin_1*%
%TO.N,/VSS*%
X149148800Y-103936800D03*
D13*
%TO.P,J2,2,Pin_2*%
%TO.N,/R*%
X149148800Y-102686800D03*
%TD*%
D10*
%TO.P,J6,2,Pin_2*%
%TO.N,/VSS*%
X147695600Y-93370400D03*
D11*
%TO.P,J6,1,Pin_1*%
%TO.N,/C*%
X148945600Y-93370400D03*
%TD*%
D15*
%TO.P,J1,1,Pin_1*%
%TO.N,/VDD*%
X136550400Y-96520000D03*
D13*
%TO.P,J1,2,Pin_2*%
%TO.N,/DIN*%
X136550400Y-97770000D03*
%TD*%
D16*
%TO.P,D1,2,K*%
%TO.N,/C*%
X144552493Y-103321667D03*
%TO.P,D1,1,A*%
%TO.N,Net-(D1-A)*%
X141451507Y-104450333D03*
%TD*%
D17*
%TO.P,D2,1,VDD*%
%TO.N,/VDD*%
X140335000Y-94512000D03*
%TO.P,D2,2,DOUT*%
%TO.N,/DOUT*%
X140335000Y-96012000D03*
D18*
%TO.P,D2,3,VSS*%
%TO.N,/VSS*%
X145435000Y-96012000D03*
D17*
%TO.P,D2,4,DIN*%
%TO.N,/DIN*%
X145435000Y-94512000D03*
%TD*%
D19*
%TO.N,/VSS*%
X142900400Y-106883200D03*
%TO.N,/C*%
X146923389Y-97494989D03*
X144552493Y-103321667D03*
%TO.N,/DOUT*%
X144625000Y-97250000D03*
%TO.N,/VSS*%
X145288000Y-98355500D03*
%TO.N,/DIN*%
X138684000Y-94234000D03*
%TD*%
D20*
%TO.N,/C*%
X142056800Y-108539600D02*
X142056800Y-108610400D01*
X143088200Y-107508200D02*
X142056800Y-108539600D01*
X144046900Y-106620584D02*
X143159284Y-107508200D01*
X144046900Y-103827260D02*
X144046900Y-106620584D01*
X144552493Y-103321667D02*
X144046900Y-103827260D01*
X143159284Y-107508200D02*
X143088200Y-107508200D01*
D21*
%TO.N,/VDD*%
X138857305Y-95289200D02*
X139634505Y-94512000D01*
X137637000Y-95289200D02*
X138857305Y-95289200D01*
X136543200Y-96383000D02*
X137637000Y-95289200D01*
D20*
%TO.N,/C*%
X147110000Y-95468751D02*
X147110000Y-95206000D01*
X146923389Y-95655362D02*
X147110000Y-95468751D01*
X147110000Y-95206000D02*
X148945600Y-93370400D01*
X146923389Y-97494989D02*
X146923389Y-95655362D01*
D21*
%TO.N,/VSS*%
X142900400Y-106883200D02*
X142900400Y-103880307D01*
X144429407Y-98355500D02*
X145288000Y-98355500D01*
X141841893Y-97834000D02*
X143907907Y-97834000D01*
X140381000Y-99294893D02*
X141841893Y-97834000D01*
X140381000Y-101360907D02*
X140381000Y-99294893D01*
X142900400Y-103880307D02*
X140381000Y-101360907D01*
X143907907Y-97834000D02*
X144429407Y-98355500D01*
X142900400Y-106984800D02*
X142900400Y-106883200D01*
X146635000Y-94431000D02*
X147695600Y-93370400D01*
X146635000Y-95272000D02*
X146635000Y-94431000D01*
X145435000Y-95272000D02*
X146635000Y-95272000D01*
X145435000Y-98208500D02*
X145435000Y-95272000D01*
X145288000Y-98355500D02*
X145435000Y-98208500D01*
D20*
%TO.N,Net-(D1-A)*%
X140334900Y-104137900D02*
X140334900Y-105407900D01*
X139064900Y-102867900D02*
X140334900Y-104137900D01*
%TO.N,/VDD*%
X139634505Y-94512000D02*
X140335000Y-94512000D01*
%TO.N,/DOUT*%
X141059000Y-97250000D02*
X140374000Y-96565000D01*
X140374000Y-96565000D02*
X140374000Y-95905000D01*
X144625000Y-97250000D02*
X141059000Y-97250000D01*
%TO.N,/DIN*%
X138684000Y-94234000D02*
X139439800Y-93478200D01*
X139439800Y-93478200D02*
X144837000Y-93478200D01*
X145435000Y-94076200D02*
X145435000Y-94512000D01*
X144837000Y-93478200D02*
X145435000Y-94076200D01*
%TO.N,/R*%
X145694400Y-104222900D02*
X145694400Y-105492900D01*
X146964400Y-102952900D02*
X145694400Y-104222900D01*
%TD*%
M02*
