%TF.GenerationSoftware,KiCad,Pcbnew,7.0.5*%
%TF.CreationDate,2023-12-15T15:58:09-05:00*%
%TF.ProjectId,amoebe_streamline,616d6f65-6265-45f7-9374-7265616d6c69,rev?*%
%TF.SameCoordinates,Original*%
%TF.FileFunction,Profile,NP*%
%FSLAX46Y46*%
G04 Gerber Fmt 4.6, Leading zero omitted, Abs format (unit mm)*
G04 Created by KiCad (PCBNEW 7.0.5) date 2023-12-15 15:58:09*
%MOMM*%
%LPD*%
G01*
G04 APERTURE LIST*
%TA.AperFunction,Profile*%
%ADD10C,0.100000*%
%TD*%
G04 APERTURE END LIST*
D10*
X133985000Y-95885000D02*
G75*
G03*
X133350000Y-96520000I0J-635000D01*
G01*
X140582000Y-90805000D02*
G75*
G03*
X143122000Y-90805000I1270000J0D01*
G01*
X135255000Y-92075000D02*
X136525000Y-92075000D01*
X137795000Y-109855000D02*
X140582000Y-109855000D01*
X152400000Y-96520000D02*
G75*
G03*
X151765000Y-95885000I-635000J0D01*
G01*
X144526000Y-93739500D02*
X141249400Y-93739500D01*
X151130000Y-92710000D02*
X151130000Y-95250000D01*
X148590000Y-91440000D02*
G75*
G03*
X149225000Y-92075000I635000J0D01*
G01*
X136525000Y-92075000D02*
G75*
G03*
X137160000Y-91440000I0J635000D01*
G01*
X152400000Y-101600000D02*
X152400000Y-104140000D01*
X152400000Y-99060000D02*
X152400000Y-96520000D01*
X134620000Y-107950000D02*
G75*
G03*
X135255000Y-108585000I635000J0D01*
G01*
X137795000Y-90805000D02*
G75*
G03*
X137160000Y-91440000I0J-635000D01*
G01*
X133350000Y-104140000D02*
G75*
G03*
X133985000Y-104775000I635000J0D01*
G01*
X143122000Y-109855000D02*
X147955000Y-109855000D01*
X133350000Y-99060000D02*
X133350000Y-96520000D01*
X144526000Y-96760500D02*
X144526000Y-93739500D01*
X149225000Y-108585000D02*
G75*
G03*
X148590000Y-109220000I0J-635000D01*
G01*
X137160000Y-109220000D02*
G75*
G03*
X137795000Y-109855000I635000J0D01*
G01*
X133350000Y-101600000D02*
X133350000Y-104140000D01*
X148590000Y-91440000D02*
G75*
G03*
X147955000Y-90805000I-635000J0D01*
G01*
X134620000Y-92710000D02*
X134620000Y-95250000D01*
X133350000Y-101600000D02*
G75*
G03*
X133350000Y-99060000I0J1270000D01*
G01*
X150495000Y-108585000D02*
G75*
G03*
X151130000Y-107950000I0J635000D01*
G01*
X135255000Y-92075000D02*
G75*
G03*
X134620000Y-92710000I0J-635000D01*
G01*
X151765000Y-104775000D02*
G75*
G03*
X151130000Y-105410000I0J-635000D01*
G01*
X150495000Y-108585000D02*
X149225000Y-108585000D01*
X151130000Y-92710000D02*
G75*
G03*
X150495000Y-92075000I-635000J0D01*
G01*
X137795000Y-90805000D02*
X140582000Y-90805000D01*
X137160000Y-109220000D02*
G75*
G03*
X136525000Y-108585000I-635000J0D01*
G01*
X151765000Y-104775000D02*
G75*
G03*
X152400000Y-104140000I0J635000D01*
G01*
X135255000Y-108585000D02*
X136525000Y-108585000D01*
X151130000Y-95250000D02*
G75*
G03*
X151765000Y-95885000I635000J0D01*
G01*
X141249400Y-96760500D02*
X144526000Y-96760500D01*
X133985000Y-95885000D02*
G75*
G03*
X134620000Y-95250000I0J635000D01*
G01*
X149225000Y-92075000D02*
X150495000Y-92075000D01*
X134620000Y-105410000D02*
G75*
G03*
X133985000Y-104775000I-635000J0D01*
G01*
X152400000Y-99060000D02*
G75*
G03*
X152400000Y-101600000I0J-1270000D01*
G01*
X147955000Y-90805000D02*
X143122000Y-90805000D01*
X141249400Y-93739500D02*
X141249400Y-96760500D01*
X143122000Y-109855000D02*
G75*
G03*
X140582000Y-109855000I-1270000J0D01*
G01*
X151130000Y-107950000D02*
X151130000Y-105410000D01*
X147955000Y-109855000D02*
G75*
G03*
X148590000Y-109220000I0J635000D01*
G01*
X134620000Y-105410000D02*
X134620000Y-107950000D01*
M02*
