%TF.GenerationSoftware,KiCad,Pcbnew,7.0.5*%
%TF.CreationDate,2023-12-15T15:55:04-05:00*%
%TF.ProjectId,amoebe_streamline,616d6f65-6265-45f7-9374-7265616d6c69,rev?*%
%TF.SameCoordinates,Original*%
%TF.FileFunction,Drillmap*%
%TF.FilePolarity,Positive*%
%FSLAX45Y45*%
G04 Gerber Fmt 4.5, Leading zero omitted, Abs format (unit mm)*
G04 Created by KiCad (PCBNEW 7.0.5) date 2023-12-15 15:55:04*
%MOMM*%
%LPD*%
G01*
G04 APERTURE LIST*
%ADD10C,0.100000*%
%ADD11C,0.200000*%
%ADD12C,0.170180*%
%ADD13C,0.398780*%
G04 APERTURE END LIST*
D10*
X13398500Y-9588500D02*
G75*
G03*
X13335000Y-9652000I0J-63500D01*
G01*
X14058200Y-9080500D02*
G75*
G03*
X14312200Y-9080500I127000J0D01*
G01*
X13525500Y-9207500D02*
X13652500Y-9207500D01*
X13779500Y-10985500D02*
X14058200Y-10985500D01*
X15240000Y-9652000D02*
G75*
G03*
X15176500Y-9588500I-63500J0D01*
G01*
X14452600Y-9373950D02*
X14124940Y-9373950D01*
X15113000Y-9271000D02*
X15113000Y-9525000D01*
X14859000Y-9144000D02*
G75*
G03*
X14922500Y-9207500I63500J0D01*
G01*
X13652500Y-9207500D02*
G75*
G03*
X13716000Y-9144000I0J63500D01*
G01*
X15240000Y-10160000D02*
X15240000Y-10414000D01*
X15240000Y-9906000D02*
X15240000Y-9652000D01*
X13462000Y-10795000D02*
G75*
G03*
X13525500Y-10858500I63500J0D01*
G01*
X13779500Y-9080500D02*
G75*
G03*
X13716000Y-9144000I0J-63500D01*
G01*
X13335000Y-10414000D02*
G75*
G03*
X13398500Y-10477500I63500J0D01*
G01*
X14312200Y-10985500D02*
X14795500Y-10985500D01*
X13335000Y-9906000D02*
X13335000Y-9652000D01*
X14452600Y-9676050D02*
X14452600Y-9373950D01*
X14922500Y-10858500D02*
G75*
G03*
X14859000Y-10922000I0J-63500D01*
G01*
X13716000Y-10922000D02*
G75*
G03*
X13779500Y-10985500I63500J0D01*
G01*
X13335000Y-10160000D02*
X13335000Y-10414000D01*
X14859000Y-9144000D02*
G75*
G03*
X14795500Y-9080500I-63500J0D01*
G01*
X13462000Y-9271000D02*
X13462000Y-9525000D01*
X13335000Y-10160000D02*
G75*
G03*
X13335000Y-9906000I0J127000D01*
G01*
X15049500Y-10858500D02*
G75*
G03*
X15113000Y-10795000I0J63500D01*
G01*
X13525500Y-9207500D02*
G75*
G03*
X13462000Y-9271000I0J-63500D01*
G01*
X15176500Y-10477500D02*
G75*
G03*
X15113000Y-10541000I0J-63500D01*
G01*
X15049500Y-10858500D02*
X14922500Y-10858500D01*
X15113000Y-9271000D02*
G75*
G03*
X15049500Y-9207500I-63500J0D01*
G01*
X13779500Y-9080500D02*
X14058200Y-9080500D01*
X13716000Y-10922000D02*
G75*
G03*
X13652500Y-10858500I-63500J0D01*
G01*
X15176500Y-10477500D02*
G75*
G03*
X15240000Y-10414000I0J63500D01*
G01*
X13525500Y-10858500D02*
X13652500Y-10858500D01*
X15113000Y-9525000D02*
G75*
G03*
X15176500Y-9588500I63500J0D01*
G01*
X14124940Y-9676050D02*
X14452600Y-9676050D01*
X13398500Y-9588500D02*
G75*
G03*
X13462000Y-9525000I0J63500D01*
G01*
X14922500Y-9207500D02*
X15049500Y-9207500D01*
X13462000Y-10541000D02*
G75*
G03*
X13398500Y-10477500I-63500J0D01*
G01*
X15240000Y-9906000D02*
G75*
G03*
X15240000Y-10160000I0J-127000D01*
G01*
X14795500Y-9080500D02*
X14312200Y-9080500D01*
X14124940Y-9373950D02*
X14124940Y-9676050D01*
X14312200Y-10985500D02*
G75*
G03*
X14058200Y-10985500I-127000J0D01*
G01*
X15113000Y-10795000D02*
X15113000Y-10541000D01*
X14795500Y-10985500D02*
G75*
G03*
X14859000Y-10922000I0J63500D01*
G01*
X13462000Y-10541000D02*
X13462000Y-10795000D01*
D11*
D12*
X13722350Y-9950450D02*
X13892530Y-10120630D01*
X13892530Y-9950450D02*
X13722350Y-10120630D01*
X14738350Y-9950450D02*
X14908530Y-10120630D01*
X14908530Y-9950450D02*
X14738350Y-10120630D01*
D13*
X14514830Y-10035540D02*
G75*
G03*
X14514830Y-10035540I-199390J0D01*
G01*
D11*
X13590777Y-11301984D02*
X13590777Y-11101984D01*
X13590777Y-11101984D02*
X13638396Y-11101984D01*
X13638396Y-11101984D02*
X13666967Y-11111508D01*
X13666967Y-11111508D02*
X13686015Y-11130555D01*
X13686015Y-11130555D02*
X13695539Y-11149603D01*
X13695539Y-11149603D02*
X13705062Y-11187698D01*
X13705062Y-11187698D02*
X13705062Y-11216269D01*
X13705062Y-11216269D02*
X13695539Y-11254365D01*
X13695539Y-11254365D02*
X13686015Y-11273412D01*
X13686015Y-11273412D02*
X13666967Y-11292460D01*
X13666967Y-11292460D02*
X13638396Y-11301984D01*
X13638396Y-11301984D02*
X13590777Y-11301984D01*
X13790777Y-11301984D02*
X13790777Y-11168650D01*
X13790777Y-11206746D02*
X13800301Y-11187698D01*
X13800301Y-11187698D02*
X13809824Y-11178174D01*
X13809824Y-11178174D02*
X13828872Y-11168650D01*
X13828872Y-11168650D02*
X13847920Y-11168650D01*
X13914586Y-11301984D02*
X13914586Y-11168650D01*
X13914586Y-11101984D02*
X13905062Y-11111508D01*
X13905062Y-11111508D02*
X13914586Y-11121031D01*
X13914586Y-11121031D02*
X13924110Y-11111508D01*
X13924110Y-11111508D02*
X13914586Y-11101984D01*
X13914586Y-11101984D02*
X13914586Y-11121031D01*
X14038396Y-11301984D02*
X14019348Y-11292460D01*
X14019348Y-11292460D02*
X14009824Y-11273412D01*
X14009824Y-11273412D02*
X14009824Y-11101984D01*
X14143158Y-11301984D02*
X14124110Y-11292460D01*
X14124110Y-11292460D02*
X14114586Y-11273412D01*
X14114586Y-11273412D02*
X14114586Y-11101984D01*
X14371729Y-11301984D02*
X14371729Y-11101984D01*
X14371729Y-11101984D02*
X14438396Y-11244841D01*
X14438396Y-11244841D02*
X14505062Y-11101984D01*
X14505062Y-11101984D02*
X14505062Y-11301984D01*
X14686015Y-11301984D02*
X14686015Y-11197222D01*
X14686015Y-11197222D02*
X14676491Y-11178174D01*
X14676491Y-11178174D02*
X14657443Y-11168650D01*
X14657443Y-11168650D02*
X14619348Y-11168650D01*
X14619348Y-11168650D02*
X14600301Y-11178174D01*
X14686015Y-11292460D02*
X14666967Y-11301984D01*
X14666967Y-11301984D02*
X14619348Y-11301984D01*
X14619348Y-11301984D02*
X14600301Y-11292460D01*
X14600301Y-11292460D02*
X14590777Y-11273412D01*
X14590777Y-11273412D02*
X14590777Y-11254365D01*
X14590777Y-11254365D02*
X14600301Y-11235317D01*
X14600301Y-11235317D02*
X14619348Y-11225793D01*
X14619348Y-11225793D02*
X14666967Y-11225793D01*
X14666967Y-11225793D02*
X14686015Y-11216269D01*
X14781253Y-11168650D02*
X14781253Y-11368650D01*
X14781253Y-11178174D02*
X14800301Y-11168650D01*
X14800301Y-11168650D02*
X14838396Y-11168650D01*
X14838396Y-11168650D02*
X14857443Y-11178174D01*
X14857443Y-11178174D02*
X14866967Y-11187698D01*
X14866967Y-11187698D02*
X14876491Y-11206746D01*
X14876491Y-11206746D02*
X14876491Y-11263888D01*
X14876491Y-11263888D02*
X14866967Y-11282936D01*
X14866967Y-11282936D02*
X14857443Y-11292460D01*
X14857443Y-11292460D02*
X14838396Y-11301984D01*
X14838396Y-11301984D02*
X14800301Y-11301984D01*
X14800301Y-11301984D02*
X14781253Y-11292460D01*
X14962205Y-11282936D02*
X14971729Y-11292460D01*
X14971729Y-11292460D02*
X14962205Y-11301984D01*
X14962205Y-11301984D02*
X14952682Y-11292460D01*
X14952682Y-11292460D02*
X14962205Y-11282936D01*
X14962205Y-11282936D02*
X14962205Y-11301984D01*
X14962205Y-11178174D02*
X14971729Y-11187698D01*
X14971729Y-11187698D02*
X14962205Y-11197222D01*
X14962205Y-11197222D02*
X14952682Y-11187698D01*
X14952682Y-11187698D02*
X14962205Y-11178174D01*
X14962205Y-11178174D02*
X14962205Y-11197222D01*
D12*
X13159820Y-11545410D02*
X13330000Y-11715590D01*
X13330000Y-11545410D02*
X13159820Y-11715590D01*
D11*
X13695539Y-11721984D02*
X13581253Y-11721984D01*
X13638396Y-11721984D02*
X13638396Y-11521984D01*
X13638396Y-11521984D02*
X13619348Y-11550555D01*
X13619348Y-11550555D02*
X13600301Y-11569603D01*
X13600301Y-11569603D02*
X13581253Y-11579127D01*
X13781253Y-11702936D02*
X13790777Y-11712460D01*
X13790777Y-11712460D02*
X13781253Y-11721984D01*
X13781253Y-11721984D02*
X13771729Y-11712460D01*
X13771729Y-11712460D02*
X13781253Y-11702936D01*
X13781253Y-11702936D02*
X13781253Y-11721984D01*
X13857443Y-11521984D02*
X13990777Y-11521984D01*
X13990777Y-11521984D02*
X13905062Y-11721984D01*
X14105062Y-11521984D02*
X14124110Y-11521984D01*
X14124110Y-11521984D02*
X14143158Y-11531508D01*
X14143158Y-11531508D02*
X14152682Y-11541031D01*
X14152682Y-11541031D02*
X14162205Y-11560079D01*
X14162205Y-11560079D02*
X14171729Y-11598174D01*
X14171729Y-11598174D02*
X14171729Y-11645793D01*
X14171729Y-11645793D02*
X14162205Y-11683888D01*
X14162205Y-11683888D02*
X14152682Y-11702936D01*
X14152682Y-11702936D02*
X14143158Y-11712460D01*
X14143158Y-11712460D02*
X14124110Y-11721984D01*
X14124110Y-11721984D02*
X14105062Y-11721984D01*
X14105062Y-11721984D02*
X14086015Y-11712460D01*
X14086015Y-11712460D02*
X14076491Y-11702936D01*
X14076491Y-11702936D02*
X14066967Y-11683888D01*
X14066967Y-11683888D02*
X14057443Y-11645793D01*
X14057443Y-11645793D02*
X14057443Y-11598174D01*
X14057443Y-11598174D02*
X14066967Y-11560079D01*
X14066967Y-11560079D02*
X14076491Y-11541031D01*
X14076491Y-11541031D02*
X14086015Y-11531508D01*
X14086015Y-11531508D02*
X14105062Y-11521984D01*
X14247920Y-11541031D02*
X14257443Y-11531508D01*
X14257443Y-11531508D02*
X14276491Y-11521984D01*
X14276491Y-11521984D02*
X14324110Y-11521984D01*
X14324110Y-11521984D02*
X14343158Y-11531508D01*
X14343158Y-11531508D02*
X14352682Y-11541031D01*
X14352682Y-11541031D02*
X14362205Y-11560079D01*
X14362205Y-11560079D02*
X14362205Y-11579127D01*
X14362205Y-11579127D02*
X14352682Y-11607698D01*
X14352682Y-11607698D02*
X14238396Y-11721984D01*
X14238396Y-11721984D02*
X14362205Y-11721984D01*
X14447920Y-11721984D02*
X14447920Y-11588650D01*
X14447920Y-11607698D02*
X14457443Y-11598174D01*
X14457443Y-11598174D02*
X14476491Y-11588650D01*
X14476491Y-11588650D02*
X14505063Y-11588650D01*
X14505063Y-11588650D02*
X14524110Y-11598174D01*
X14524110Y-11598174D02*
X14533634Y-11617222D01*
X14533634Y-11617222D02*
X14533634Y-11721984D01*
X14533634Y-11617222D02*
X14543158Y-11598174D01*
X14543158Y-11598174D02*
X14562205Y-11588650D01*
X14562205Y-11588650D02*
X14590777Y-11588650D01*
X14590777Y-11588650D02*
X14609824Y-11598174D01*
X14609824Y-11598174D02*
X14619348Y-11617222D01*
X14619348Y-11617222D02*
X14619348Y-11721984D01*
X14714586Y-11721984D02*
X14714586Y-11588650D01*
X14714586Y-11607698D02*
X14724110Y-11598174D01*
X14724110Y-11598174D02*
X14743158Y-11588650D01*
X14743158Y-11588650D02*
X14771729Y-11588650D01*
X14771729Y-11588650D02*
X14790777Y-11598174D01*
X14790777Y-11598174D02*
X14800301Y-11617222D01*
X14800301Y-11617222D02*
X14800301Y-11721984D01*
X14800301Y-11617222D02*
X14809824Y-11598174D01*
X14809824Y-11598174D02*
X14828872Y-11588650D01*
X14828872Y-11588650D02*
X14857443Y-11588650D01*
X14857443Y-11588650D02*
X14876491Y-11598174D01*
X14876491Y-11598174D02*
X14886015Y-11617222D01*
X14886015Y-11617222D02*
X14886015Y-11721984D01*
X15276491Y-11512460D02*
X15105063Y-11769603D01*
X15533634Y-11521984D02*
X15552682Y-11521984D01*
X15552682Y-11521984D02*
X15571729Y-11531508D01*
X15571729Y-11531508D02*
X15581253Y-11541031D01*
X15581253Y-11541031D02*
X15590777Y-11560079D01*
X15590777Y-11560079D02*
X15600301Y-11598174D01*
X15600301Y-11598174D02*
X15600301Y-11645793D01*
X15600301Y-11645793D02*
X15590777Y-11683888D01*
X15590777Y-11683888D02*
X15581253Y-11702936D01*
X15581253Y-11702936D02*
X15571729Y-11712460D01*
X15571729Y-11712460D02*
X15552682Y-11721984D01*
X15552682Y-11721984D02*
X15533634Y-11721984D01*
X15533634Y-11721984D02*
X15514586Y-11712460D01*
X15514586Y-11712460D02*
X15505063Y-11702936D01*
X15505063Y-11702936D02*
X15495539Y-11683888D01*
X15495539Y-11683888D02*
X15486015Y-11645793D01*
X15486015Y-11645793D02*
X15486015Y-11598174D01*
X15486015Y-11598174D02*
X15495539Y-11560079D01*
X15495539Y-11560079D02*
X15505063Y-11541031D01*
X15505063Y-11541031D02*
X15514586Y-11531508D01*
X15514586Y-11531508D02*
X15533634Y-11521984D01*
X15686015Y-11702936D02*
X15695539Y-11712460D01*
X15695539Y-11712460D02*
X15686015Y-11721984D01*
X15686015Y-11721984D02*
X15676491Y-11712460D01*
X15676491Y-11712460D02*
X15686015Y-11702936D01*
X15686015Y-11702936D02*
X15686015Y-11721984D01*
X15819348Y-11521984D02*
X15838396Y-11521984D01*
X15838396Y-11521984D02*
X15857444Y-11531508D01*
X15857444Y-11531508D02*
X15866967Y-11541031D01*
X15866967Y-11541031D02*
X15876491Y-11560079D01*
X15876491Y-11560079D02*
X15886015Y-11598174D01*
X15886015Y-11598174D02*
X15886015Y-11645793D01*
X15886015Y-11645793D02*
X15876491Y-11683888D01*
X15876491Y-11683888D02*
X15866967Y-11702936D01*
X15866967Y-11702936D02*
X15857444Y-11712460D01*
X15857444Y-11712460D02*
X15838396Y-11721984D01*
X15838396Y-11721984D02*
X15819348Y-11721984D01*
X15819348Y-11721984D02*
X15800301Y-11712460D01*
X15800301Y-11712460D02*
X15790777Y-11702936D01*
X15790777Y-11702936D02*
X15781253Y-11683888D01*
X15781253Y-11683888D02*
X15771729Y-11645793D01*
X15771729Y-11645793D02*
X15771729Y-11598174D01*
X15771729Y-11598174D02*
X15781253Y-11560079D01*
X15781253Y-11560079D02*
X15790777Y-11541031D01*
X15790777Y-11541031D02*
X15800301Y-11531508D01*
X15800301Y-11531508D02*
X15819348Y-11521984D01*
X16057444Y-11521984D02*
X16019348Y-11521984D01*
X16019348Y-11521984D02*
X16000301Y-11531508D01*
X16000301Y-11531508D02*
X15990777Y-11541031D01*
X15990777Y-11541031D02*
X15971729Y-11569603D01*
X15971729Y-11569603D02*
X15962206Y-11607698D01*
X15962206Y-11607698D02*
X15962206Y-11683888D01*
X15962206Y-11683888D02*
X15971729Y-11702936D01*
X15971729Y-11702936D02*
X15981253Y-11712460D01*
X15981253Y-11712460D02*
X16000301Y-11721984D01*
X16000301Y-11721984D02*
X16038396Y-11721984D01*
X16038396Y-11721984D02*
X16057444Y-11712460D01*
X16057444Y-11712460D02*
X16066967Y-11702936D01*
X16066967Y-11702936D02*
X16076491Y-11683888D01*
X16076491Y-11683888D02*
X16076491Y-11636269D01*
X16076491Y-11636269D02*
X16066967Y-11617222D01*
X16066967Y-11617222D02*
X16057444Y-11607698D01*
X16057444Y-11607698D02*
X16038396Y-11598174D01*
X16038396Y-11598174D02*
X16000301Y-11598174D01*
X16000301Y-11598174D02*
X15981253Y-11607698D01*
X15981253Y-11607698D02*
X15971729Y-11617222D01*
X15971729Y-11617222D02*
X15962206Y-11636269D01*
X16143158Y-11521984D02*
X16276491Y-11521984D01*
X16276491Y-11521984D02*
X16190777Y-11721984D01*
X16390777Y-11521984D02*
X16409825Y-11521984D01*
X16409825Y-11521984D02*
X16428872Y-11531508D01*
X16428872Y-11531508D02*
X16438396Y-11541031D01*
X16438396Y-11541031D02*
X16447920Y-11560079D01*
X16447920Y-11560079D02*
X16457444Y-11598174D01*
X16457444Y-11598174D02*
X16457444Y-11645793D01*
X16457444Y-11645793D02*
X16447920Y-11683888D01*
X16447920Y-11683888D02*
X16438396Y-11702936D01*
X16438396Y-11702936D02*
X16428872Y-11712460D01*
X16428872Y-11712460D02*
X16409825Y-11721984D01*
X16409825Y-11721984D02*
X16390777Y-11721984D01*
X16390777Y-11721984D02*
X16371729Y-11712460D01*
X16371729Y-11712460D02*
X16362206Y-11702936D01*
X16362206Y-11702936D02*
X16352682Y-11683888D01*
X16352682Y-11683888D02*
X16343158Y-11645793D01*
X16343158Y-11645793D02*
X16343158Y-11598174D01*
X16343158Y-11598174D02*
X16352682Y-11560079D01*
X16352682Y-11560079D02*
X16362206Y-11541031D01*
X16362206Y-11541031D02*
X16371729Y-11531508D01*
X16371729Y-11531508D02*
X16390777Y-11521984D01*
X16533634Y-11521984D02*
X16533634Y-11560079D01*
X16609825Y-11521984D02*
X16609825Y-11560079D01*
X16905063Y-11798174D02*
X16895539Y-11788650D01*
X16895539Y-11788650D02*
X16876491Y-11760079D01*
X16876491Y-11760079D02*
X16866968Y-11741031D01*
X16866968Y-11741031D02*
X16857444Y-11712460D01*
X16857444Y-11712460D02*
X16847920Y-11664841D01*
X16847920Y-11664841D02*
X16847920Y-11626746D01*
X16847920Y-11626746D02*
X16857444Y-11579127D01*
X16857444Y-11579127D02*
X16866968Y-11550555D01*
X16866968Y-11550555D02*
X16876491Y-11531508D01*
X16876491Y-11531508D02*
X16895539Y-11502936D01*
X16895539Y-11502936D02*
X16905063Y-11493412D01*
X16971730Y-11541031D02*
X16981253Y-11531508D01*
X16981253Y-11531508D02*
X17000301Y-11521984D01*
X17000301Y-11521984D02*
X17047920Y-11521984D01*
X17047920Y-11521984D02*
X17066968Y-11531508D01*
X17066968Y-11531508D02*
X17076491Y-11541031D01*
X17076491Y-11541031D02*
X17086015Y-11560079D01*
X17086015Y-11560079D02*
X17086015Y-11579127D01*
X17086015Y-11579127D02*
X17076491Y-11607698D01*
X17076491Y-11607698D02*
X16962206Y-11721984D01*
X16962206Y-11721984D02*
X17086015Y-11721984D01*
X17324111Y-11721984D02*
X17324111Y-11521984D01*
X17409825Y-11721984D02*
X17409825Y-11617222D01*
X17409825Y-11617222D02*
X17400301Y-11598174D01*
X17400301Y-11598174D02*
X17381253Y-11588650D01*
X17381253Y-11588650D02*
X17352682Y-11588650D01*
X17352682Y-11588650D02*
X17333634Y-11598174D01*
X17333634Y-11598174D02*
X17324111Y-11607698D01*
X17533634Y-11721984D02*
X17514587Y-11712460D01*
X17514587Y-11712460D02*
X17505063Y-11702936D01*
X17505063Y-11702936D02*
X17495539Y-11683888D01*
X17495539Y-11683888D02*
X17495539Y-11626746D01*
X17495539Y-11626746D02*
X17505063Y-11607698D01*
X17505063Y-11607698D02*
X17514587Y-11598174D01*
X17514587Y-11598174D02*
X17533634Y-11588650D01*
X17533634Y-11588650D02*
X17562206Y-11588650D01*
X17562206Y-11588650D02*
X17581253Y-11598174D01*
X17581253Y-11598174D02*
X17590777Y-11607698D01*
X17590777Y-11607698D02*
X17600301Y-11626746D01*
X17600301Y-11626746D02*
X17600301Y-11683888D01*
X17600301Y-11683888D02*
X17590777Y-11702936D01*
X17590777Y-11702936D02*
X17581253Y-11712460D01*
X17581253Y-11712460D02*
X17562206Y-11721984D01*
X17562206Y-11721984D02*
X17533634Y-11721984D01*
X17714587Y-11721984D02*
X17695539Y-11712460D01*
X17695539Y-11712460D02*
X17686015Y-11693412D01*
X17686015Y-11693412D02*
X17686015Y-11521984D01*
X17866968Y-11712460D02*
X17847920Y-11721984D01*
X17847920Y-11721984D02*
X17809825Y-11721984D01*
X17809825Y-11721984D02*
X17790777Y-11712460D01*
X17790777Y-11712460D02*
X17781253Y-11693412D01*
X17781253Y-11693412D02*
X17781253Y-11617222D01*
X17781253Y-11617222D02*
X17790777Y-11598174D01*
X17790777Y-11598174D02*
X17809825Y-11588650D01*
X17809825Y-11588650D02*
X17847920Y-11588650D01*
X17847920Y-11588650D02*
X17866968Y-11598174D01*
X17866968Y-11598174D02*
X17876492Y-11617222D01*
X17876492Y-11617222D02*
X17876492Y-11636269D01*
X17876492Y-11636269D02*
X17781253Y-11655317D01*
X17952682Y-11712460D02*
X17971730Y-11721984D01*
X17971730Y-11721984D02*
X18009825Y-11721984D01*
X18009825Y-11721984D02*
X18028873Y-11712460D01*
X18028873Y-11712460D02*
X18038396Y-11693412D01*
X18038396Y-11693412D02*
X18038396Y-11683888D01*
X18038396Y-11683888D02*
X18028873Y-11664841D01*
X18028873Y-11664841D02*
X18009825Y-11655317D01*
X18009825Y-11655317D02*
X17981253Y-11655317D01*
X17981253Y-11655317D02*
X17962206Y-11645793D01*
X17962206Y-11645793D02*
X17952682Y-11626746D01*
X17952682Y-11626746D02*
X17952682Y-11617222D01*
X17952682Y-11617222D02*
X17962206Y-11598174D01*
X17962206Y-11598174D02*
X17981253Y-11588650D01*
X17981253Y-11588650D02*
X18009825Y-11588650D01*
X18009825Y-11588650D02*
X18028873Y-11598174D01*
X18105063Y-11798174D02*
X18114587Y-11788650D01*
X18114587Y-11788650D02*
X18133634Y-11760079D01*
X18133634Y-11760079D02*
X18143158Y-11741031D01*
X18143158Y-11741031D02*
X18152682Y-11712460D01*
X18152682Y-11712460D02*
X18162206Y-11664841D01*
X18162206Y-11664841D02*
X18162206Y-11626746D01*
X18162206Y-11626746D02*
X18152682Y-11579127D01*
X18152682Y-11579127D02*
X18143158Y-11550555D01*
X18143158Y-11550555D02*
X18133634Y-11531508D01*
X18133634Y-11531508D02*
X18114587Y-11502936D01*
X18114587Y-11502936D02*
X18105063Y-11493412D01*
X18466968Y-11798174D02*
X18457444Y-11788650D01*
X18457444Y-11788650D02*
X18438396Y-11760079D01*
X18438396Y-11760079D02*
X18428873Y-11741031D01*
X18428873Y-11741031D02*
X18419349Y-11712460D01*
X18419349Y-11712460D02*
X18409825Y-11664841D01*
X18409825Y-11664841D02*
X18409825Y-11626746D01*
X18409825Y-11626746D02*
X18419349Y-11579127D01*
X18419349Y-11579127D02*
X18428873Y-11550555D01*
X18428873Y-11550555D02*
X18438396Y-11531508D01*
X18438396Y-11531508D02*
X18457444Y-11502936D01*
X18457444Y-11502936D02*
X18466968Y-11493412D01*
X18543158Y-11588650D02*
X18543158Y-11721984D01*
X18543158Y-11607698D02*
X18552682Y-11598174D01*
X18552682Y-11598174D02*
X18571730Y-11588650D01*
X18571730Y-11588650D02*
X18600301Y-11588650D01*
X18600301Y-11588650D02*
X18619349Y-11598174D01*
X18619349Y-11598174D02*
X18628873Y-11617222D01*
X18628873Y-11617222D02*
X18628873Y-11721984D01*
X18752682Y-11721984D02*
X18733634Y-11712460D01*
X18733634Y-11712460D02*
X18724111Y-11702936D01*
X18724111Y-11702936D02*
X18714587Y-11683888D01*
X18714587Y-11683888D02*
X18714587Y-11626746D01*
X18714587Y-11626746D02*
X18724111Y-11607698D01*
X18724111Y-11607698D02*
X18733634Y-11598174D01*
X18733634Y-11598174D02*
X18752682Y-11588650D01*
X18752682Y-11588650D02*
X18781254Y-11588650D01*
X18781254Y-11588650D02*
X18800301Y-11598174D01*
X18800301Y-11598174D02*
X18809825Y-11607698D01*
X18809825Y-11607698D02*
X18819349Y-11626746D01*
X18819349Y-11626746D02*
X18819349Y-11683888D01*
X18819349Y-11683888D02*
X18809825Y-11702936D01*
X18809825Y-11702936D02*
X18800301Y-11712460D01*
X18800301Y-11712460D02*
X18781254Y-11721984D01*
X18781254Y-11721984D02*
X18752682Y-11721984D01*
X18876492Y-11588650D02*
X18952682Y-11588650D01*
X18905063Y-11521984D02*
X18905063Y-11693412D01*
X18905063Y-11693412D02*
X18914587Y-11712460D01*
X18914587Y-11712460D02*
X18933634Y-11721984D01*
X18933634Y-11721984D02*
X18952682Y-11721984D01*
X19171730Y-11588650D02*
X19171730Y-11788650D01*
X19171730Y-11598174D02*
X19190777Y-11588650D01*
X19190777Y-11588650D02*
X19228873Y-11588650D01*
X19228873Y-11588650D02*
X19247920Y-11598174D01*
X19247920Y-11598174D02*
X19257444Y-11607698D01*
X19257444Y-11607698D02*
X19266968Y-11626746D01*
X19266968Y-11626746D02*
X19266968Y-11683888D01*
X19266968Y-11683888D02*
X19257444Y-11702936D01*
X19257444Y-11702936D02*
X19247920Y-11712460D01*
X19247920Y-11712460D02*
X19228873Y-11721984D01*
X19228873Y-11721984D02*
X19190777Y-11721984D01*
X19190777Y-11721984D02*
X19171730Y-11712460D01*
X19381254Y-11721984D02*
X19362206Y-11712460D01*
X19362206Y-11712460D02*
X19352682Y-11693412D01*
X19352682Y-11693412D02*
X19352682Y-11521984D01*
X19543158Y-11721984D02*
X19543158Y-11617222D01*
X19543158Y-11617222D02*
X19533635Y-11598174D01*
X19533635Y-11598174D02*
X19514587Y-11588650D01*
X19514587Y-11588650D02*
X19476492Y-11588650D01*
X19476492Y-11588650D02*
X19457444Y-11598174D01*
X19543158Y-11712460D02*
X19524111Y-11721984D01*
X19524111Y-11721984D02*
X19476492Y-11721984D01*
X19476492Y-11721984D02*
X19457444Y-11712460D01*
X19457444Y-11712460D02*
X19447920Y-11693412D01*
X19447920Y-11693412D02*
X19447920Y-11674365D01*
X19447920Y-11674365D02*
X19457444Y-11655317D01*
X19457444Y-11655317D02*
X19476492Y-11645793D01*
X19476492Y-11645793D02*
X19524111Y-11645793D01*
X19524111Y-11645793D02*
X19543158Y-11636269D01*
X19609825Y-11588650D02*
X19686015Y-11588650D01*
X19638396Y-11521984D02*
X19638396Y-11693412D01*
X19638396Y-11693412D02*
X19647920Y-11712460D01*
X19647920Y-11712460D02*
X19666968Y-11721984D01*
X19666968Y-11721984D02*
X19686015Y-11721984D01*
X19828873Y-11712460D02*
X19809825Y-11721984D01*
X19809825Y-11721984D02*
X19771730Y-11721984D01*
X19771730Y-11721984D02*
X19752682Y-11712460D01*
X19752682Y-11712460D02*
X19743158Y-11693412D01*
X19743158Y-11693412D02*
X19743158Y-11617222D01*
X19743158Y-11617222D02*
X19752682Y-11598174D01*
X19752682Y-11598174D02*
X19771730Y-11588650D01*
X19771730Y-11588650D02*
X19809825Y-11588650D01*
X19809825Y-11588650D02*
X19828873Y-11598174D01*
X19828873Y-11598174D02*
X19838396Y-11617222D01*
X19838396Y-11617222D02*
X19838396Y-11636269D01*
X19838396Y-11636269D02*
X19743158Y-11655317D01*
X20009825Y-11721984D02*
X20009825Y-11521984D01*
X20009825Y-11712460D02*
X19990777Y-11721984D01*
X19990777Y-11721984D02*
X19952682Y-11721984D01*
X19952682Y-11721984D02*
X19933635Y-11712460D01*
X19933635Y-11712460D02*
X19924111Y-11702936D01*
X19924111Y-11702936D02*
X19914587Y-11683888D01*
X19914587Y-11683888D02*
X19914587Y-11626746D01*
X19914587Y-11626746D02*
X19924111Y-11607698D01*
X19924111Y-11607698D02*
X19933635Y-11598174D01*
X19933635Y-11598174D02*
X19952682Y-11588650D01*
X19952682Y-11588650D02*
X19990777Y-11588650D01*
X19990777Y-11588650D02*
X20009825Y-11598174D01*
X20086016Y-11798174D02*
X20095539Y-11788650D01*
X20095539Y-11788650D02*
X20114587Y-11760079D01*
X20114587Y-11760079D02*
X20124111Y-11741031D01*
X20124111Y-11741031D02*
X20133635Y-11712460D01*
X20133635Y-11712460D02*
X20143158Y-11664841D01*
X20143158Y-11664841D02*
X20143158Y-11626746D01*
X20143158Y-11626746D02*
X20133635Y-11579127D01*
X20133635Y-11579127D02*
X20124111Y-11550555D01*
X20124111Y-11550555D02*
X20114587Y-11531508D01*
X20114587Y-11531508D02*
X20095539Y-11502936D01*
X20095539Y-11502936D02*
X20086016Y-11493412D01*
X13330000Y-11920680D02*
G75*
G03*
X13330000Y-11920680I-100000J0D01*
G01*
X13571729Y-11812164D02*
X13695539Y-11812164D01*
X13695539Y-11812164D02*
X13628872Y-11888354D01*
X13628872Y-11888354D02*
X13657443Y-11888354D01*
X13657443Y-11888354D02*
X13676491Y-11897878D01*
X13676491Y-11897878D02*
X13686015Y-11907402D01*
X13686015Y-11907402D02*
X13695539Y-11926449D01*
X13695539Y-11926449D02*
X13695539Y-11974068D01*
X13695539Y-11974068D02*
X13686015Y-11993116D01*
X13686015Y-11993116D02*
X13676491Y-12002640D01*
X13676491Y-12002640D02*
X13657443Y-12012164D01*
X13657443Y-12012164D02*
X13600301Y-12012164D01*
X13600301Y-12012164D02*
X13581253Y-12002640D01*
X13581253Y-12002640D02*
X13571729Y-11993116D01*
X13781253Y-11993116D02*
X13790777Y-12002640D01*
X13790777Y-12002640D02*
X13781253Y-12012164D01*
X13781253Y-12012164D02*
X13771729Y-12002640D01*
X13771729Y-12002640D02*
X13781253Y-11993116D01*
X13781253Y-11993116D02*
X13781253Y-12012164D01*
X13886015Y-12012164D02*
X13924110Y-12012164D01*
X13924110Y-12012164D02*
X13943158Y-12002640D01*
X13943158Y-12002640D02*
X13952682Y-11993116D01*
X13952682Y-11993116D02*
X13971729Y-11964545D01*
X13971729Y-11964545D02*
X13981253Y-11926449D01*
X13981253Y-11926449D02*
X13981253Y-11850259D01*
X13981253Y-11850259D02*
X13971729Y-11831211D01*
X13971729Y-11831211D02*
X13962205Y-11821688D01*
X13962205Y-11821688D02*
X13943158Y-11812164D01*
X13943158Y-11812164D02*
X13905062Y-11812164D01*
X13905062Y-11812164D02*
X13886015Y-11821688D01*
X13886015Y-11821688D02*
X13876491Y-11831211D01*
X13876491Y-11831211D02*
X13866967Y-11850259D01*
X13866967Y-11850259D02*
X13866967Y-11897878D01*
X13866967Y-11897878D02*
X13876491Y-11916926D01*
X13876491Y-11916926D02*
X13886015Y-11926449D01*
X13886015Y-11926449D02*
X13905062Y-11935973D01*
X13905062Y-11935973D02*
X13943158Y-11935973D01*
X13943158Y-11935973D02*
X13962205Y-11926449D01*
X13962205Y-11926449D02*
X13971729Y-11916926D01*
X13971729Y-11916926D02*
X13981253Y-11897878D01*
X14095539Y-11897878D02*
X14076491Y-11888354D01*
X14076491Y-11888354D02*
X14066967Y-11878830D01*
X14066967Y-11878830D02*
X14057443Y-11859783D01*
X14057443Y-11859783D02*
X14057443Y-11850259D01*
X14057443Y-11850259D02*
X14066967Y-11831211D01*
X14066967Y-11831211D02*
X14076491Y-11821688D01*
X14076491Y-11821688D02*
X14095539Y-11812164D01*
X14095539Y-11812164D02*
X14133634Y-11812164D01*
X14133634Y-11812164D02*
X14152682Y-11821688D01*
X14152682Y-11821688D02*
X14162205Y-11831211D01*
X14162205Y-11831211D02*
X14171729Y-11850259D01*
X14171729Y-11850259D02*
X14171729Y-11859783D01*
X14171729Y-11859783D02*
X14162205Y-11878830D01*
X14162205Y-11878830D02*
X14152682Y-11888354D01*
X14152682Y-11888354D02*
X14133634Y-11897878D01*
X14133634Y-11897878D02*
X14095539Y-11897878D01*
X14095539Y-11897878D02*
X14076491Y-11907402D01*
X14076491Y-11907402D02*
X14066967Y-11916926D01*
X14066967Y-11916926D02*
X14057443Y-11935973D01*
X14057443Y-11935973D02*
X14057443Y-11974068D01*
X14057443Y-11974068D02*
X14066967Y-11993116D01*
X14066967Y-11993116D02*
X14076491Y-12002640D01*
X14076491Y-12002640D02*
X14095539Y-12012164D01*
X14095539Y-12012164D02*
X14133634Y-12012164D01*
X14133634Y-12012164D02*
X14152682Y-12002640D01*
X14152682Y-12002640D02*
X14162205Y-11993116D01*
X14162205Y-11993116D02*
X14171729Y-11974068D01*
X14171729Y-11974068D02*
X14171729Y-11935973D01*
X14171729Y-11935973D02*
X14162205Y-11916926D01*
X14162205Y-11916926D02*
X14152682Y-11907402D01*
X14152682Y-11907402D02*
X14133634Y-11897878D01*
X14286015Y-11897878D02*
X14266967Y-11888354D01*
X14266967Y-11888354D02*
X14257443Y-11878830D01*
X14257443Y-11878830D02*
X14247920Y-11859783D01*
X14247920Y-11859783D02*
X14247920Y-11850259D01*
X14247920Y-11850259D02*
X14257443Y-11831211D01*
X14257443Y-11831211D02*
X14266967Y-11821688D01*
X14266967Y-11821688D02*
X14286015Y-11812164D01*
X14286015Y-11812164D02*
X14324110Y-11812164D01*
X14324110Y-11812164D02*
X14343158Y-11821688D01*
X14343158Y-11821688D02*
X14352682Y-11831211D01*
X14352682Y-11831211D02*
X14362205Y-11850259D01*
X14362205Y-11850259D02*
X14362205Y-11859783D01*
X14362205Y-11859783D02*
X14352682Y-11878830D01*
X14352682Y-11878830D02*
X14343158Y-11888354D01*
X14343158Y-11888354D02*
X14324110Y-11897878D01*
X14324110Y-11897878D02*
X14286015Y-11897878D01*
X14286015Y-11897878D02*
X14266967Y-11907402D01*
X14266967Y-11907402D02*
X14257443Y-11916926D01*
X14257443Y-11916926D02*
X14247920Y-11935973D01*
X14247920Y-11935973D02*
X14247920Y-11974068D01*
X14247920Y-11974068D02*
X14257443Y-11993116D01*
X14257443Y-11993116D02*
X14266967Y-12002640D01*
X14266967Y-12002640D02*
X14286015Y-12012164D01*
X14286015Y-12012164D02*
X14324110Y-12012164D01*
X14324110Y-12012164D02*
X14343158Y-12002640D01*
X14343158Y-12002640D02*
X14352682Y-11993116D01*
X14352682Y-11993116D02*
X14362205Y-11974068D01*
X14362205Y-11974068D02*
X14362205Y-11935973D01*
X14362205Y-11935973D02*
X14352682Y-11916926D01*
X14352682Y-11916926D02*
X14343158Y-11907402D01*
X14343158Y-11907402D02*
X14324110Y-11897878D01*
X14447920Y-12012164D02*
X14447920Y-11878830D01*
X14447920Y-11897878D02*
X14457443Y-11888354D01*
X14457443Y-11888354D02*
X14476491Y-11878830D01*
X14476491Y-11878830D02*
X14505063Y-11878830D01*
X14505063Y-11878830D02*
X14524110Y-11888354D01*
X14524110Y-11888354D02*
X14533634Y-11907402D01*
X14533634Y-11907402D02*
X14533634Y-12012164D01*
X14533634Y-11907402D02*
X14543158Y-11888354D01*
X14543158Y-11888354D02*
X14562205Y-11878830D01*
X14562205Y-11878830D02*
X14590777Y-11878830D01*
X14590777Y-11878830D02*
X14609824Y-11888354D01*
X14609824Y-11888354D02*
X14619348Y-11907402D01*
X14619348Y-11907402D02*
X14619348Y-12012164D01*
X14714586Y-12012164D02*
X14714586Y-11878830D01*
X14714586Y-11897878D02*
X14724110Y-11888354D01*
X14724110Y-11888354D02*
X14743158Y-11878830D01*
X14743158Y-11878830D02*
X14771729Y-11878830D01*
X14771729Y-11878830D02*
X14790777Y-11888354D01*
X14790777Y-11888354D02*
X14800301Y-11907402D01*
X14800301Y-11907402D02*
X14800301Y-12012164D01*
X14800301Y-11907402D02*
X14809824Y-11888354D01*
X14809824Y-11888354D02*
X14828872Y-11878830D01*
X14828872Y-11878830D02*
X14857443Y-11878830D01*
X14857443Y-11878830D02*
X14876491Y-11888354D01*
X14876491Y-11888354D02*
X14886015Y-11907402D01*
X14886015Y-11907402D02*
X14886015Y-12012164D01*
X15276491Y-11802640D02*
X15105063Y-12059783D01*
X15533634Y-11812164D02*
X15552682Y-11812164D01*
X15552682Y-11812164D02*
X15571729Y-11821688D01*
X15571729Y-11821688D02*
X15581253Y-11831211D01*
X15581253Y-11831211D02*
X15590777Y-11850259D01*
X15590777Y-11850259D02*
X15600301Y-11888354D01*
X15600301Y-11888354D02*
X15600301Y-11935973D01*
X15600301Y-11935973D02*
X15590777Y-11974068D01*
X15590777Y-11974068D02*
X15581253Y-11993116D01*
X15581253Y-11993116D02*
X15571729Y-12002640D01*
X15571729Y-12002640D02*
X15552682Y-12012164D01*
X15552682Y-12012164D02*
X15533634Y-12012164D01*
X15533634Y-12012164D02*
X15514586Y-12002640D01*
X15514586Y-12002640D02*
X15505063Y-11993116D01*
X15505063Y-11993116D02*
X15495539Y-11974068D01*
X15495539Y-11974068D02*
X15486015Y-11935973D01*
X15486015Y-11935973D02*
X15486015Y-11888354D01*
X15486015Y-11888354D02*
X15495539Y-11850259D01*
X15495539Y-11850259D02*
X15505063Y-11831211D01*
X15505063Y-11831211D02*
X15514586Y-11821688D01*
X15514586Y-11821688D02*
X15533634Y-11812164D01*
X15686015Y-11993116D02*
X15695539Y-12002640D01*
X15695539Y-12002640D02*
X15686015Y-12012164D01*
X15686015Y-12012164D02*
X15676491Y-12002640D01*
X15676491Y-12002640D02*
X15686015Y-11993116D01*
X15686015Y-11993116D02*
X15686015Y-12012164D01*
X15886015Y-12012164D02*
X15771729Y-12012164D01*
X15828872Y-12012164D02*
X15828872Y-11812164D01*
X15828872Y-11812164D02*
X15809825Y-11840735D01*
X15809825Y-11840735D02*
X15790777Y-11859783D01*
X15790777Y-11859783D02*
X15771729Y-11869307D01*
X16066967Y-11812164D02*
X15971729Y-11812164D01*
X15971729Y-11812164D02*
X15962206Y-11907402D01*
X15962206Y-11907402D02*
X15971729Y-11897878D01*
X15971729Y-11897878D02*
X15990777Y-11888354D01*
X15990777Y-11888354D02*
X16038396Y-11888354D01*
X16038396Y-11888354D02*
X16057444Y-11897878D01*
X16057444Y-11897878D02*
X16066967Y-11907402D01*
X16066967Y-11907402D02*
X16076491Y-11926449D01*
X16076491Y-11926449D02*
X16076491Y-11974068D01*
X16076491Y-11974068D02*
X16066967Y-11993116D01*
X16066967Y-11993116D02*
X16057444Y-12002640D01*
X16057444Y-12002640D02*
X16038396Y-12012164D01*
X16038396Y-12012164D02*
X15990777Y-12012164D01*
X15990777Y-12012164D02*
X15971729Y-12002640D01*
X15971729Y-12002640D02*
X15962206Y-11993116D01*
X16143158Y-11812164D02*
X16276491Y-11812164D01*
X16276491Y-11812164D02*
X16190777Y-12012164D01*
X16390777Y-11812164D02*
X16409825Y-11812164D01*
X16409825Y-11812164D02*
X16428872Y-11821688D01*
X16428872Y-11821688D02*
X16438396Y-11831211D01*
X16438396Y-11831211D02*
X16447920Y-11850259D01*
X16447920Y-11850259D02*
X16457444Y-11888354D01*
X16457444Y-11888354D02*
X16457444Y-11935973D01*
X16457444Y-11935973D02*
X16447920Y-11974068D01*
X16447920Y-11974068D02*
X16438396Y-11993116D01*
X16438396Y-11993116D02*
X16428872Y-12002640D01*
X16428872Y-12002640D02*
X16409825Y-12012164D01*
X16409825Y-12012164D02*
X16390777Y-12012164D01*
X16390777Y-12012164D02*
X16371729Y-12002640D01*
X16371729Y-12002640D02*
X16362206Y-11993116D01*
X16362206Y-11993116D02*
X16352682Y-11974068D01*
X16352682Y-11974068D02*
X16343158Y-11935973D01*
X16343158Y-11935973D02*
X16343158Y-11888354D01*
X16343158Y-11888354D02*
X16352682Y-11850259D01*
X16352682Y-11850259D02*
X16362206Y-11831211D01*
X16362206Y-11831211D02*
X16371729Y-11821688D01*
X16371729Y-11821688D02*
X16390777Y-11812164D01*
X16533634Y-11812164D02*
X16533634Y-11850259D01*
X16609825Y-11812164D02*
X16609825Y-11850259D01*
X16905063Y-12088354D02*
X16895539Y-12078830D01*
X16895539Y-12078830D02*
X16876491Y-12050259D01*
X16876491Y-12050259D02*
X16866968Y-12031211D01*
X16866968Y-12031211D02*
X16857444Y-12002640D01*
X16857444Y-12002640D02*
X16847920Y-11955021D01*
X16847920Y-11955021D02*
X16847920Y-11916926D01*
X16847920Y-11916926D02*
X16857444Y-11869307D01*
X16857444Y-11869307D02*
X16866968Y-11840735D01*
X16866968Y-11840735D02*
X16876491Y-11821688D01*
X16876491Y-11821688D02*
X16895539Y-11793116D01*
X16895539Y-11793116D02*
X16905063Y-11783592D01*
X17086015Y-12012164D02*
X16971730Y-12012164D01*
X17028872Y-12012164D02*
X17028872Y-11812164D01*
X17028872Y-11812164D02*
X17009825Y-11840735D01*
X17009825Y-11840735D02*
X16990777Y-11859783D01*
X16990777Y-11859783D02*
X16971730Y-11869307D01*
X17324111Y-12012164D02*
X17324111Y-11812164D01*
X17409825Y-12012164D02*
X17409825Y-11907402D01*
X17409825Y-11907402D02*
X17400301Y-11888354D01*
X17400301Y-11888354D02*
X17381253Y-11878830D01*
X17381253Y-11878830D02*
X17352682Y-11878830D01*
X17352682Y-11878830D02*
X17333634Y-11888354D01*
X17333634Y-11888354D02*
X17324111Y-11897878D01*
X17533634Y-12012164D02*
X17514587Y-12002640D01*
X17514587Y-12002640D02*
X17505063Y-11993116D01*
X17505063Y-11993116D02*
X17495539Y-11974068D01*
X17495539Y-11974068D02*
X17495539Y-11916926D01*
X17495539Y-11916926D02*
X17505063Y-11897878D01*
X17505063Y-11897878D02*
X17514587Y-11888354D01*
X17514587Y-11888354D02*
X17533634Y-11878830D01*
X17533634Y-11878830D02*
X17562206Y-11878830D01*
X17562206Y-11878830D02*
X17581253Y-11888354D01*
X17581253Y-11888354D02*
X17590777Y-11897878D01*
X17590777Y-11897878D02*
X17600301Y-11916926D01*
X17600301Y-11916926D02*
X17600301Y-11974068D01*
X17600301Y-11974068D02*
X17590777Y-11993116D01*
X17590777Y-11993116D02*
X17581253Y-12002640D01*
X17581253Y-12002640D02*
X17562206Y-12012164D01*
X17562206Y-12012164D02*
X17533634Y-12012164D01*
X17714587Y-12012164D02*
X17695539Y-12002640D01*
X17695539Y-12002640D02*
X17686015Y-11983592D01*
X17686015Y-11983592D02*
X17686015Y-11812164D01*
X17866968Y-12002640D02*
X17847920Y-12012164D01*
X17847920Y-12012164D02*
X17809825Y-12012164D01*
X17809825Y-12012164D02*
X17790777Y-12002640D01*
X17790777Y-12002640D02*
X17781253Y-11983592D01*
X17781253Y-11983592D02*
X17781253Y-11907402D01*
X17781253Y-11907402D02*
X17790777Y-11888354D01*
X17790777Y-11888354D02*
X17809825Y-11878830D01*
X17809825Y-11878830D02*
X17847920Y-11878830D01*
X17847920Y-11878830D02*
X17866968Y-11888354D01*
X17866968Y-11888354D02*
X17876492Y-11907402D01*
X17876492Y-11907402D02*
X17876492Y-11926449D01*
X17876492Y-11926449D02*
X17781253Y-11945497D01*
X17943158Y-12088354D02*
X17952682Y-12078830D01*
X17952682Y-12078830D02*
X17971730Y-12050259D01*
X17971730Y-12050259D02*
X17981253Y-12031211D01*
X17981253Y-12031211D02*
X17990777Y-12002640D01*
X17990777Y-12002640D02*
X18000301Y-11955021D01*
X18000301Y-11955021D02*
X18000301Y-11916926D01*
X18000301Y-11916926D02*
X17990777Y-11869307D01*
X17990777Y-11869307D02*
X17981253Y-11840735D01*
X17981253Y-11840735D02*
X17971730Y-11821688D01*
X17971730Y-11821688D02*
X17952682Y-11793116D01*
X17952682Y-11793116D02*
X17943158Y-11783592D01*
X18305063Y-12088354D02*
X18295539Y-12078830D01*
X18295539Y-12078830D02*
X18276492Y-12050259D01*
X18276492Y-12050259D02*
X18266968Y-12031211D01*
X18266968Y-12031211D02*
X18257444Y-12002640D01*
X18257444Y-12002640D02*
X18247920Y-11955021D01*
X18247920Y-11955021D02*
X18247920Y-11916926D01*
X18247920Y-11916926D02*
X18257444Y-11869307D01*
X18257444Y-11869307D02*
X18266968Y-11840735D01*
X18266968Y-11840735D02*
X18276492Y-11821688D01*
X18276492Y-11821688D02*
X18295539Y-11793116D01*
X18295539Y-11793116D02*
X18305063Y-11783592D01*
X18381253Y-11878830D02*
X18381253Y-12012164D01*
X18381253Y-11897878D02*
X18390777Y-11888354D01*
X18390777Y-11888354D02*
X18409825Y-11878830D01*
X18409825Y-11878830D02*
X18438396Y-11878830D01*
X18438396Y-11878830D02*
X18457444Y-11888354D01*
X18457444Y-11888354D02*
X18466968Y-11907402D01*
X18466968Y-11907402D02*
X18466968Y-12012164D01*
X18590777Y-12012164D02*
X18571730Y-12002640D01*
X18571730Y-12002640D02*
X18562206Y-11993116D01*
X18562206Y-11993116D02*
X18552682Y-11974068D01*
X18552682Y-11974068D02*
X18552682Y-11916926D01*
X18552682Y-11916926D02*
X18562206Y-11897878D01*
X18562206Y-11897878D02*
X18571730Y-11888354D01*
X18571730Y-11888354D02*
X18590777Y-11878830D01*
X18590777Y-11878830D02*
X18619349Y-11878830D01*
X18619349Y-11878830D02*
X18638396Y-11888354D01*
X18638396Y-11888354D02*
X18647920Y-11897878D01*
X18647920Y-11897878D02*
X18657444Y-11916926D01*
X18657444Y-11916926D02*
X18657444Y-11974068D01*
X18657444Y-11974068D02*
X18647920Y-11993116D01*
X18647920Y-11993116D02*
X18638396Y-12002640D01*
X18638396Y-12002640D02*
X18619349Y-12012164D01*
X18619349Y-12012164D02*
X18590777Y-12012164D01*
X18714587Y-11878830D02*
X18790777Y-11878830D01*
X18743158Y-11812164D02*
X18743158Y-11983592D01*
X18743158Y-11983592D02*
X18752682Y-12002640D01*
X18752682Y-12002640D02*
X18771730Y-12012164D01*
X18771730Y-12012164D02*
X18790777Y-12012164D01*
X19009825Y-11878830D02*
X19009825Y-12078830D01*
X19009825Y-11888354D02*
X19028873Y-11878830D01*
X19028873Y-11878830D02*
X19066968Y-11878830D01*
X19066968Y-11878830D02*
X19086015Y-11888354D01*
X19086015Y-11888354D02*
X19095539Y-11897878D01*
X19095539Y-11897878D02*
X19105063Y-11916926D01*
X19105063Y-11916926D02*
X19105063Y-11974068D01*
X19105063Y-11974068D02*
X19095539Y-11993116D01*
X19095539Y-11993116D02*
X19086015Y-12002640D01*
X19086015Y-12002640D02*
X19066968Y-12012164D01*
X19066968Y-12012164D02*
X19028873Y-12012164D01*
X19028873Y-12012164D02*
X19009825Y-12002640D01*
X19219349Y-12012164D02*
X19200301Y-12002640D01*
X19200301Y-12002640D02*
X19190777Y-11983592D01*
X19190777Y-11983592D02*
X19190777Y-11812164D01*
X19381254Y-12012164D02*
X19381254Y-11907402D01*
X19381254Y-11907402D02*
X19371730Y-11888354D01*
X19371730Y-11888354D02*
X19352682Y-11878830D01*
X19352682Y-11878830D02*
X19314587Y-11878830D01*
X19314587Y-11878830D02*
X19295539Y-11888354D01*
X19381254Y-12002640D02*
X19362206Y-12012164D01*
X19362206Y-12012164D02*
X19314587Y-12012164D01*
X19314587Y-12012164D02*
X19295539Y-12002640D01*
X19295539Y-12002640D02*
X19286015Y-11983592D01*
X19286015Y-11983592D02*
X19286015Y-11964545D01*
X19286015Y-11964545D02*
X19295539Y-11945497D01*
X19295539Y-11945497D02*
X19314587Y-11935973D01*
X19314587Y-11935973D02*
X19362206Y-11935973D01*
X19362206Y-11935973D02*
X19381254Y-11926449D01*
X19447920Y-11878830D02*
X19524111Y-11878830D01*
X19476492Y-11812164D02*
X19476492Y-11983592D01*
X19476492Y-11983592D02*
X19486015Y-12002640D01*
X19486015Y-12002640D02*
X19505063Y-12012164D01*
X19505063Y-12012164D02*
X19524111Y-12012164D01*
X19666968Y-12002640D02*
X19647920Y-12012164D01*
X19647920Y-12012164D02*
X19609825Y-12012164D01*
X19609825Y-12012164D02*
X19590777Y-12002640D01*
X19590777Y-12002640D02*
X19581254Y-11983592D01*
X19581254Y-11983592D02*
X19581254Y-11907402D01*
X19581254Y-11907402D02*
X19590777Y-11888354D01*
X19590777Y-11888354D02*
X19609825Y-11878830D01*
X19609825Y-11878830D02*
X19647920Y-11878830D01*
X19647920Y-11878830D02*
X19666968Y-11888354D01*
X19666968Y-11888354D02*
X19676492Y-11907402D01*
X19676492Y-11907402D02*
X19676492Y-11926449D01*
X19676492Y-11926449D02*
X19581254Y-11945497D01*
X19847920Y-12012164D02*
X19847920Y-11812164D01*
X19847920Y-12002640D02*
X19828873Y-12012164D01*
X19828873Y-12012164D02*
X19790777Y-12012164D01*
X19790777Y-12012164D02*
X19771730Y-12002640D01*
X19771730Y-12002640D02*
X19762206Y-11993116D01*
X19762206Y-11993116D02*
X19752682Y-11974068D01*
X19752682Y-11974068D02*
X19752682Y-11916926D01*
X19752682Y-11916926D02*
X19762206Y-11897878D01*
X19762206Y-11897878D02*
X19771730Y-11888354D01*
X19771730Y-11888354D02*
X19790777Y-11878830D01*
X19790777Y-11878830D02*
X19828873Y-11878830D01*
X19828873Y-11878830D02*
X19847920Y-11888354D01*
X19924111Y-12088354D02*
X19933635Y-12078830D01*
X19933635Y-12078830D02*
X19952682Y-12050259D01*
X19952682Y-12050259D02*
X19962206Y-12031211D01*
X19962206Y-12031211D02*
X19971730Y-12002640D01*
X19971730Y-12002640D02*
X19981254Y-11955021D01*
X19981254Y-11955021D02*
X19981254Y-11916926D01*
X19981254Y-11916926D02*
X19971730Y-11869307D01*
X19971730Y-11869307D02*
X19962206Y-11840735D01*
X19962206Y-11840735D02*
X19952682Y-11821688D01*
X19952682Y-11821688D02*
X19933635Y-11793116D01*
X19933635Y-11793116D02*
X19924111Y-11783592D01*
M02*
